<svg width="30.39" height="32" viewBox="0 0 78 85" fill="none" xmlns="http://www.w3.org/2000/svg">
<path d="M63.1095 29.1415C61.5416 27.7936 60.3278 26.0822 59.5742 24.1567C60.3284 24.8874 62.155 24.6163 64.995 22.8133C67.3519 21.3285 69.5202 19.8319 71.0757 18.736L71.7356 18.2764L72.6548 19.5726L72.0067 20.044C70.4511 21.1517 68.33 22.7426 66.1734 24.4513C63.522 26.5489 62.6617 28.1752 63.1095 29.1415Z" fill="#64CF83"/>
<path opacity="0.2" d="M71.8293 20.1501C71.6456 19.9586 71.4762 19.7538 71.3226 19.5373C71.1663 19.3213 71.0284 19.0927 70.9102 18.8538L71.7233 18.2764L72.6425 19.5726L71.8293 20.1501Z" fill="black"/>
<path d="M74.5165 20.6571C74.6426 20.5672 74.7472 20.4505 74.8229 20.3154C74.8292 20.2843 74.8292 20.2522 74.8229 20.2211C74.8229 20.2211 74.8229 20.1268 74.8229 20.0679C74.8229 20.009 74.8229 20.0679 74.8229 19.9854C74.8229 19.9029 74.8229 19.9029 74.8229 19.8558C74.7958 19.0402 74.5066 18.255 73.998 17.6168C73.5583 16.9338 72.9153 16.4062 72.1596 16.1084H72.03H71.6411C71.4882 16.1345 71.3431 16.1949 71.2169 16.2852C71.0908 16.3751 70.9861 16.4918 70.9105 16.6269C70.557 17.1454 70.8162 18.3003 71.5822 19.3727C72.3482 20.445 73.3381 21.0696 73.9391 20.9046C74.1504 20.8759 74.35 20.7904 74.5165 20.6571Z" fill="#64CF83"/>
<path opacity="0.3" d="M74.1985 19.4785C73.845 19.7259 73.1379 19.3371 72.6076 18.5946C72.0773 17.8522 71.9477 17.0627 72.2894 16.8034C72.6312 16.5442 72.8669 16.8034 73.2322 17.0155C72.749 16.827 72.4308 17.157 72.5605 17.7108C72.7672 18.302 73.1445 18.8187 73.6446 19.1956C73.9628 19.3842 74.2221 19.4431 74.3752 19.1956C74.3664 19.2523 74.3462 19.3065 74.3158 19.3551C74.2855 19.4038 74.2455 19.4457 74.1985 19.4785Z" fill="black"/>
<path d="M55.9795 20.6564C54.0159 20.0126 52.2149 18.9512 50.7002 17.5454C51.6901 17.9225 52.5739 18.0521 54.2355 15.5538C55.6025 13.5269 55.7557 13.4209 56.5924 12.0185C56.7338 11.8064 56.8516 11.5943 56.9695 11.4058L58.3364 12.2189L57.9711 12.8317C57.1226 14.3047 57.0637 14.4579 55.9442 16.638C54.6126 19.3012 55.1664 20.0083 55.9795 20.6564Z" fill="#64CF83"/>
<path opacity="0.2" d="M57.8768 13.0552C57.6283 12.9565 57.3879 12.8383 57.158 12.7017C56.9253 12.5676 56.7045 12.4138 56.498 12.2421L57.0166 11.3818L58.3835 12.195L57.8768 13.0552Z" fill="black"/>
<path d="M61.0825 12.4077C61.1813 12.2512 61.2419 12.0735 61.2592 11.8892V11.7596C61.2708 11.6973 61.2708 11.6334 61.2592 11.5711C61.2659 11.54 61.2659 11.5078 61.2592 11.4768C61.2628 11.4258 61.2628 11.3746 61.2592 11.3236C60.7951 10.4808 60.1124 9.77874 59.2828 9.29138C58.4533 8.80402 57.5076 8.54937 56.5455 8.55427H56.3923H56.2981L56.1213 8.62498L56.027 8.69568C55.8715 8.79761 55.7422 8.93491 55.6499 9.09635C55.5528 9.24941 55.4923 9.42282 55.4731 9.60307C55.3435 10.3455 56.1802 11.465 57.5236 12.2545C58.867 13.0441 60.2576 13.2444 60.835 12.773C60.9373 12.6659 61.0209 12.5424 61.0825 12.4077Z" fill="#64CF83"/>
<path opacity="0.3" d="M60.2104 11.3586C59.9511 11.7947 59.0319 11.7122 58.0656 11.1701C57.0993 10.628 56.6044 9.82669 56.8872 9.37888C57.0404 9.10784 57.4764 9.03714 57.9949 9.15498C57.3939 9.15498 57.1936 9.68528 57.6178 10.2274C58.1207 10.773 58.7788 11.1514 59.5033 11.3115C59.9393 11.3704 60.2457 11.3115 60.2811 10.9462C60.2972 11.0162 60.2993 11.0887 60.2871 11.1595C60.275 11.2303 60.2489 11.298 60.2104 11.3586Z" fill="black"/>
<path d="M45.4919 15.9427C43.7609 16.0918 42.0177 15.8914 40.3657 15.3535C41.2495 15.3535 42.0862 14.2929 42.4869 12.0185C42.6706 11.3372 42.8084 10.6443 42.8993 9.94449C42.8993 9.74416 42.8993 9.56739 42.97 9.39062L44.3017 9.54382C44.3017 9.72059 44.3017 9.89735 44.3017 10.0977C44.2239 10.798 44.2042 11.5035 44.2428 12.2071C44.066 14.4932 44.6316 15.6834 45.4919 15.9427Z" fill="#64CF83"/>
<path opacity="0.2" d="M44.2071 10.3569C43.9835 10.3742 43.759 10.3742 43.5354 10.3569C43.3119 10.3342 43.091 10.2908 42.8755 10.2273C42.8755 9.93271 42.8755 9.64988 42.9697 9.39062L44.3014 9.54382C44.2778 9.77951 44.2425 10.0506 44.2071 10.3569Z" fill="black"/>
<path d="M46.0099 8.93121C46.0331 8.80262 46.0331 8.67092 46.0099 8.54233C46.0138 8.51497 46.0138 8.4872 46.0099 8.45984C45.9957 8.41214 45.9716 8.36796 45.9392 8.33021L45.8685 8.24772C45.3415 7.8104 44.6899 7.55059 44.0066 7.50531C43.3321 7.39694 42.6405 7.49985 42.0268 7.79992L41.9443 7.85884L41.85 7.9649V8.0356C41.7757 8.144 41.731 8.26993 41.7204 8.40091C41.6909 8.52488 41.6909 8.65405 41.7204 8.77801C41.85 9.29652 42.7221 9.77968 43.818 9.95644C44.914 10.1332 45.8685 9.81503 46.116 9.33188C46.1124 9.19186 46.0761 9.05463 46.0099 8.93121Z" fill="#64CF83"/>
<path opacity="0.3" d="M45.1384 8.51856C45.1384 8.87208 44.4432 9.09598 43.689 9.01349C42.9348 8.931 42.3456 8.55391 42.3809 8.20038C42.4163 7.84685 42.6755 7.79971 43.0408 7.729C42.6637 7.91755 42.6755 8.30644 43.1115 8.54212C43.5956 8.74428 44.129 8.79761 44.6435 8.69532C44.9499 8.61283 45.1267 8.47142 45.0559 8.23573C45.1154 8.31758 45.1446 8.41757 45.1384 8.51856Z" fill="black"/>
<path d="M34.8738 15.7198C33.1166 16.7887 31.128 17.4193 29.0759 17.5581C30.0068 17.0632 30.3132 15.272 29.4883 12.0431C28.8166 9.41516 28.086 6.9051 27.5204 5.1021C27.4379 4.83106 27.3672 4.58359 27.2847 4.3479L28.8049 3.86475C28.8873 4.10043 28.958 4.3479 29.0523 4.61894C29.6297 6.41016 30.4664 8.89665 31.4092 11.4421C32.6112 14.5531 33.7896 15.8494 34.8738 15.7198Z" fill="#64CF83"/>
<path opacity="0.2" d="M29.0761 4.81928C28.8384 4.94061 28.5899 5.03925 28.3337 5.11388C28.078 5.19069 27.8184 5.25364 27.5559 5.30243L27.2495 4.3479L28.7697 3.86475L29.0761 4.81928Z" fill="black"/>
<path opacity="0.3" d="M29.4415 1.80206C29.6065 2.32057 28.8641 2.98049 27.7799 3.35759C26.6958 3.73469 25.6941 3.54614 25.5291 3.03942C25.4349 2.72124 25.6823 2.33236 26.1419 2.00239C25.7295 2.49734 25.9887 3.01585 26.7193 3.06298C27.4962 3.04716 28.2508 2.80108 28.8877 2.35593C29.2412 2.04954 29.4062 1.75493 29.1587 1.48389C29.288 1.55274 29.3883 1.66561 29.4415 1.80206Z" fill="black"/>
<path d="M24.504 20.0675C23.2278 21.5395 21.7616 22.8354 20.1438 23.9209C20.8155 23.1903 20.8509 22.0354 19.8256 20.6331C19.0007 19.4547 18.1287 18.4177 17.4688 17.6752L17.1978 17.3689L18.3762 16.3672L18.659 16.6736C19.3072 17.4042 20.2617 18.3941 21.2987 19.3604C22.5478 20.5388 23.6909 20.6567 24.504 20.0675Z" fill="#64CF83"/>
<path opacity="0.2" d="M18.788 16.8503C18.623 17.0271 18.4463 17.2039 18.2459 17.3806C18.0573 17.5522 17.8565 17.7097 17.6449 17.852L17.2207 17.3689L18.3991 16.3672L18.788 16.8503Z" fill="black"/>
<path d="M19.0003 14.4462C18.9068 14.3438 18.7949 14.2598 18.6704 14.1987H18.5761H18.4347H18.2461C17.5275 14.3 16.8593 14.6258 16.3371 15.1297C15.7703 15.5873 15.3588 16.2087 15.1586 16.9091C15.1638 16.9482 15.1638 16.9879 15.1586 17.027V17.0977C15.1528 17.1446 15.1528 17.1921 15.1586 17.2391C15.1639 17.2703 15.1639 17.3022 15.1586 17.3334C15.2043 17.4656 15.272 17.5891 15.359 17.6987C15.4528 17.7977 15.5648 17.8778 15.6889 17.9344C16.1839 18.2054 17.1855 17.8637 18.0458 17.0859C18.906 16.3081 19.3892 15.3654 19.2242 14.8351C19.1782 14.691 19.1018 14.5584 19.0003 14.4462Z" fill="#64CF83"/>
<path opacity="0.3" d="M18.0578 14.8349C18.317 15.1177 18.0578 15.7894 17.4215 16.3197C16.7851 16.85 16.1134 17.0503 15.8659 16.7675C15.6184 16.4847 15.7481 16.2608 15.9602 15.919C15.8306 16.355 16.1605 16.6143 16.6437 16.4375C17.1336 16.1929 17.5427 15.8124 17.8221 15.3416C17.9635 15.047 17.9871 14.8113 17.7396 14.7052C17.799 14.7019 17.8583 14.7118 17.9133 14.7342C17.9683 14.7566 18.0177 14.791 18.0578 14.8349Z" fill="black"/>
<path d="M17.0087 28.0927C16.6107 30.1108 15.7382 32.0053 14.4633 33.6195C14.7225 32.5943 13.603 31.1684 10.6687 29.6364C8.31185 28.3873 5.95498 27.2796 4.23447 26.4664L3.51562 26.1365L4.18734 24.687L4.90618 25.017C6.61491 25.783 9.00712 26.8082 11.5172 27.7981C14.5929 29.0472 16.3959 28.9058 17.0087 28.0927Z" fill="#64CF83"/>
<path opacity="0.2" d="M5.09472 25.1346C5.01932 25.3927 4.92479 25.6448 4.81191 25.8888C4.70759 26.1353 4.58138 26.3719 4.4348 26.5959L3.51562 26.1716L4.18734 24.7222L5.09472 25.1346Z" fill="black"/>
<path d="M4.05797 21.4578C3.86394 21.3755 3.65588 21.3315 3.44518 21.3281H3.24485H3.02094H2.92667C2.86782 21.3414 2.81191 21.3654 2.76169 21.3988C1.85702 22.0268 1.13791 22.8865 0.679706 23.8879C0.221506 24.8893 0.0410975 25.9956 0.157364 27.0907C0.157364 27.0907 0.157364 27.2085 0.157364 27.2556V27.3617L0.263418 27.562L0.345899 27.6681C0.482938 27.8347 0.656277 27.9677 0.852634 28.057C1.04215 28.1403 1.24659 28.1844 1.45363 28.1866C2.31388 28.1866 3.49231 27.1496 4.2465 25.5233C5.0007 23.8971 5.03606 22.2827 4.42328 21.6699C4.31252 21.5817 4.18944 21.5102 4.05797 21.4578Z" fill="#64CF83"/>
<path opacity="0.3" d="M2.98565 22.5892C3.51594 22.8249 3.53951 23.9444 2.98565 25.0639C2.43178 26.1834 1.61867 26.9023 1.08837 26.6548C0.758411 26.5134 0.617003 26.0302 0.687709 25.4764C0.793768 26.1599 1.40655 26.3249 1.97219 25.7828C2.52598 25.136 2.87829 24.3413 2.98565 23.4966C2.98565 22.9899 2.87958 22.6364 2.47891 22.6364C2.55448 22.5911 2.63924 22.5634 2.72693 22.5553C2.81462 22.5471 2.90303 22.5587 2.98565 22.5892Z" fill="black"/>
<path d="M13.4145 38.4512C13.7388 40.5817 13.7149 42.7508 13.3438 44.8736C13.2259 43.7777 12.1064 42.8939 9.80848 42.6817C7.91121 42.5168 6.08466 42.4343 4.7766 42.4107H4.21094V40.7373H4.7648C6.07286 40.7373 7.91121 40.7373 9.80848 40.5606C12.13 40.3956 13.2613 39.5118 13.4145 38.4512Z" fill="#64CF83"/>
<path opacity="0.2" d="M4.97675 40.6904C4.97675 40.9615 4.97675 41.2325 4.97675 41.5271C4.97554 41.8109 4.95586 42.0943 4.91783 42.3756H4.15186V40.7022L4.97675 40.6904Z" fill="black"/>
<path d="M3.0093 38.7935C2.85531 38.7953 2.70317 38.8274 2.56149 38.8877H2.46722L2.33759 38.982H2.27866L2.18439 39.0763C1.72293 39.7729 1.49588 40.5986 1.53626 41.4332C1.47953 42.2644 1.69459 43.0916 2.14903 43.79L2.23153 43.8843H2.29046L2.42009 43.9786H2.51436C2.65432 44.0456 2.80702 44.0817 2.96215 44.0846C3.11615 44.0828 3.26829 44.0507 3.40996 43.9904C3.99918 43.7782 4.47056 42.6941 4.48234 41.3742C4.49412 40.0544 4.04631 39.0174 3.45709 38.7463C3.30622 38.7252 3.15246 38.7414 3.0093 38.7935Z" fill="#64CF83"/>
<path opacity="0.3" d="M2.62086 39.8652C3.05688 39.8652 3.39861 40.6076 3.38683 41.515C3.37504 42.4224 3.02152 43.153 2.59728 43.153C2.17305 43.153 2.09056 42.8702 1.96094 42.4342C2.23198 42.8702 2.69155 42.7995 2.90367 42.2574C3.0815 41.6616 3.0815 41.0267 2.90367 40.4309C2.76226 40.0773 2.57371 39.8888 2.30267 40.0066C2.38747 39.9216 2.50091 39.8712 2.62086 39.8652Z" fill="black"/>
<path d="M14.5223 50.353C15.2281 51.7524 15.8499 53.1927 16.3842 54.6661C16.1014 54.0769 15.4886 53.417 14.8405 53.4877C14.3579 53.5666 13.8842 53.6929 13.4264 53.8648L13.285 53.9355L12.8843 53.0163H13.0257C13.4576 52.8117 13.8551 52.5414 14.2041 52.215C14.4414 51.9745 14.5992 51.667 14.6561 51.334C14.713 51.001 14.6663 50.6586 14.5223 50.353Z" fill="#64CF83"/>
<path opacity="0.2" d="M13.226 52.9106C13.2967 53.0403 13.3674 53.1935 13.4381 53.3584C13.5053 53.5083 13.5643 53.6618 13.6149 53.818L13.285 53.9712L12.8843 53.0521L13.226 52.9106Z" fill="black"/>
<path opacity="0.3" d="M11.3053 52.8988C11.6117 52.7692 12.0831 53.1816 12.3659 53.8298C12.6488 54.4779 12.6134 55.0907 12.3659 55.2321C12.1185 55.3735 11.9299 55.2321 11.6942 54.9257C12.0242 55.1378 12.3306 54.9257 12.307 54.5015C12.2466 54.0219 12.0456 53.5709 11.7296 53.2052C11.5292 53.0049 11.3289 52.9224 11.1875 53.0991C11.2012 53.0203 11.2431 52.9491 11.3053 52.8988Z" fill="black"/>
<path d="M19.9553 59.8037C21.7524 60.8111 23.3149 62.1889 24.5393 63.8457C23.6437 63.2919 22.8071 62.9855 20.7448 65.0242C19.0596 66.7211 18.8947 66.78 17.7869 68.0174L17.3274 68.5359L16.1489 67.4871L16.6085 66.9568C17.6927 65.7076 17.787 65.5662 19.2482 63.6925C21.0276 61.4182 20.6152 60.6168 19.9553 59.8037Z" fill="#64CF83"/>
<path opacity="0.2" d="M16.7971 66.7686C17.023 66.9106 17.2359 67.0723 17.4334 67.2517C17.6327 67.4253 17.8179 67.6144 17.9873 67.8174L17.3274 68.5716L16.1489 67.5227L16.7971 66.7686Z" fill="black"/>
<path d="M13.5205 66.804C13.4016 66.9473 13.3097 67.111 13.2495 67.2872V67.405C13.2495 67.4757 13.2495 67.5346 13.2495 67.6053C13.2495 67.676 13.2495 67.6643 13.2495 67.6996C13.2495 67.735 13.2495 67.7939 13.2495 67.8528C13.5093 68.7815 14.0532 69.6057 14.805 70.2097C15.4946 70.8857 16.3825 71.3235 17.3387 71.4588H17.5979H17.7865H17.8925C18.0628 71.386 18.2155 71.2775 18.3403 71.1406C18.4619 71.0056 18.5507 70.8443 18.5996 70.6693C18.8706 69.9622 18.2578 68.7131 17.0912 67.676C15.9245 66.639 14.6047 66.1912 13.933 66.4976C13.7746 66.5682 13.6338 66.6728 13.5205 66.804Z" fill="#64CF83"/>
<path opacity="0.3" d="M14.1807 67.9945C14.5106 67.6056 15.4416 67.8766 16.2547 68.5837C17.0678 69.2908 17.4331 70.1864 17.0914 70.5635C16.7496 70.9406 16.455 70.7991 15.913 70.5635C16.514 70.6577 16.7968 70.1981 16.4904 69.5854C16.0929 68.9624 15.5241 68.4673 14.8524 68.1595C14.4281 68.0181 14.11 68.0298 14.0039 68.3716C14.0071 68.3002 14.0243 68.2301 14.0546 68.1654C14.085 68.1007 14.1278 68.0426 14.1807 67.9945Z" fill="black"/>
<path d="M29.4649 66.3921C31.1913 66.5828 32.8643 67.1071 34.3907 67.9358C33.5069 67.8062 32.5053 68.6429 31.6921 70.7641C31.3815 71.3838 31.1176 72.0259 30.9026 72.6849C30.8319 72.8735 30.7847 73.0502 30.7376 73.2034L29.4531 72.8028C29.4531 72.6378 29.5592 72.4728 29.6063 72.2842C29.8078 71.6165 29.9614 70.9352 30.0659 70.2456C30.608 68.0419 30.2545 66.781 29.4649 66.3921Z" fill="#64CF83"/>
<path opacity="0.2" d="M29.7006 72.001C29.925 72.0308 30.1459 72.0821 30.3605 72.1542C30.5748 72.2203 30.7836 72.303 30.9851 72.4016C30.8908 72.6845 30.8083 72.9555 30.7376 73.203L29.4531 72.8023C29.5356 72.5077 29.6181 72.2838 29.7006 72.001Z" fill="black"/>
<path d="M27.6738 73.0615C27.6387 73.1888 27.6387 73.3231 27.6738 73.4504C27.6681 73.4776 27.6681 73.5057 27.6738 73.5329C27.6689 73.576 27.6689 73.6194 27.6738 73.6625V73.7568C28.11 74.2892 28.7043 74.6689 29.3708 74.8409C30.0125 75.082 30.7147 75.1109 31.3741 74.9234H31.4684H31.5391L31.6451 74.8527H31.704C31.7887 74.7547 31.8523 74.6403 31.8909 74.5166C31.9294 74.3929 31.942 74.2627 31.9279 74.1339C31.9279 73.6036 31.1384 72.9554 30.0778 72.6255C29.7025 72.4517 29.2889 72.3767 28.8764 72.4077C28.4639 72.4386 28.0662 72.5744 27.721 72.8023C27.6924 72.8858 27.6765 72.9732 27.6738 73.0615Z" fill="#64CF83"/>
<path opacity="0.3" d="M28.4392 73.6855C28.5452 73.332 29.2287 73.2377 29.9593 73.4734C30.6899 73.7091 31.1967 74.1687 31.0788 74.5104C30.961 74.8522 30.7253 74.8522 30.3482 74.8522C30.7607 74.7344 30.8196 74.3455 30.4425 74.0391C30.002 73.7477 29.4857 73.592 28.9576 73.5913C28.6395 73.5913 28.4392 73.7209 28.4745 73.9684C28.4285 73.8816 28.4159 73.781 28.4392 73.6855Z" fill="black"/>
<path d="M39.8936 68.6071C41.8359 67.8933 43.9209 67.6549 45.9743 67.9118C44.9608 68.2182 44.3127 69.9034 44.513 73.203C44.678 75.8898 44.9255 78.4706 45.1258 80.2736C45.1258 80.5564 45.1258 80.8156 45.2083 81.0513L43.6292 81.2399C43.6292 80.9924 43.6292 80.7331 43.5349 80.4503C43.311 78.6002 42.9575 76.0194 42.5097 73.3797C41.9558 70.1508 40.9541 68.6778 39.8936 68.6071Z" fill="#64CF83"/>
<path opacity="0.2" d="M43.5117 80.2971C43.7709 80.2299 44.0349 80.1826 44.3013 80.1557C44.5679 80.133 44.836 80.133 45.1026 80.1557C45.1026 80.5093 45.138 80.8392 45.2087 81.1456L43.6296 81.3342C43.5942 80.9924 43.5589 80.6507 43.5117 80.2971Z" fill="black"/>
<path d="M41.2023 82.8784C41.2218 83.0714 41.2864 83.2571 41.3909 83.4205C41.406 83.4608 41.4302 83.4971 41.4616 83.5266L41.603 83.668L41.6855 83.7387L41.8151 83.833C42.7361 84.2422 43.7501 84.3969 44.7512 84.2808C45.7523 84.1647 46.704 83.7822 47.5069 83.1731L47.613 83.0552L47.6719 82.9727C47.7157 82.9193 47.7514 82.8597 47.778 82.796V82.6781C47.8198 82.4879 47.8198 82.2909 47.778 82.1007C47.7528 81.909 47.6887 81.7245 47.5894 81.5586C47.2359 80.8633 45.8218 80.4509 44.1955 80.6394C42.5693 80.828 41.273 81.5468 41.0845 82.3128C41.0866 82.5072 41.1267 82.6993 41.2023 82.8784Z" fill="#64CF83"/>
<path opacity="0.3" d="M42.5924 83.1959C42.5217 82.6538 43.382 82.1117 44.5133 82.0174C45.6446 81.9232 46.5991 82.2295 46.658 82.7598C46.658 83.0898 46.3752 83.4198 45.8685 83.6554C46.3634 83.2548 46.1984 82.6891 45.5032 82.477C44.7338 82.3436 43.9421 82.442 43.2288 82.7598C42.8281 82.9837 42.616 83.243 42.8046 83.5612C42.7465 83.5176 42.6979 83.4628 42.6615 83.4C42.625 83.3373 42.6015 83.2678 42.5924 83.1959Z" fill="black"/>
<path d="M50.9238 66.2499C52.4626 65.0515 54.15 64.0573 55.9439 63.292C55.1426 63.8812 54.8716 65.0007 55.6022 66.568C56.2032 67.8407 56.8396 69.031 57.3227 69.8676L57.5231 70.2212L56.2268 70.9871C56.1561 70.8811 56.0971 70.7632 56.0146 70.6454C55.5079 69.8087 54.7773 68.6774 53.9524 67.5343C52.9389 66.1556 51.8312 65.8374 50.9238 66.2499Z" fill="#64CF83"/>
<path opacity="0.2" d="M55.8975 70.4335C56.086 70.2921 56.2981 70.1507 56.522 70.0093L57.2055 69.6558C57.3116 69.8561 57.4294 70.0446 57.5237 70.2214L56.2274 70.9874C56.1803 70.8224 56.0153 70.6339 55.8975 70.4335Z" fill="black"/>
<path d="M55.2255 72.7551C55.3009 72.8732 55.3966 72.977 55.5083 73.0615H55.5908H55.7205H55.7912H55.909C56.6345 73.1044 57.3543 72.91 57.9595 72.5076C58.5943 72.1632 59.1083 71.6327 59.4325 70.9874C59.4427 70.9528 59.4427 70.916 59.4325 70.8814C59.4377 70.8581 59.4377 70.834 59.4325 70.8107C59.4383 70.7637 59.4383 70.7162 59.4325 70.6693V70.5396C59.418 70.4021 59.3738 70.2695 59.3029 70.1507C59.2352 70.0307 59.1428 69.9262 59.0319 69.8444C58.5841 69.4908 57.547 69.644 56.5336 70.2332C55.5201 70.8225 54.8956 71.6709 54.9898 72.2248C55.023 72.4184 55.104 72.6007 55.2255 72.7551Z" fill="#64CF83"/>
<path opacity="0.3" d="M56.1803 72.5072C55.9918 72.1772 56.3924 71.5762 57.0877 71.1637C57.783 70.7513 58.5136 70.6924 58.7022 71.0223C58.8907 71.3523 58.7022 71.5408 58.4429 71.8354C58.655 71.4348 58.4429 71.1166 57.8773 71.1991C57.3372 71.3327 56.849 71.624 56.4749 72.0358C56.2864 72.3068 56.2157 72.5425 56.4749 72.6839C56.4156 72.679 56.3581 72.6605 56.3071 72.6298C56.256 72.5992 56.2126 72.5572 56.1803 72.5072Z" fill="black"/>
<path d="M59.833 59.6035C60.4792 57.6189 61.7119 55.8768 63.3683 54.6069C62.9676 55.5968 64.1461 57.4587 67.4457 60.0395C68.2352 60.6405 69.8968 62.196 71.8176 63.5748L72.6308 64.1522L71.7116 65.4485L70.8985 64.8711C68.954 63.5041 66.8565 62.0428 66.279 61.6657C62.7791 59.3914 60.6343 58.8964 59.833 59.6035Z" fill="#64CF83"/>
<path opacity="0.2" d="M70.9102 64.8832C71.0257 64.6428 71.1638 64.414 71.3226 64.1997C71.4762 63.9832 71.6456 63.7784 71.8293 63.5869L72.6425 64.1643L71.7233 65.4606L70.9102 64.8832Z" fill="black"/>
<path d="M71.2282 68.6891C71.3993 68.8145 71.5968 68.8992 71.8057 68.9365H71.9471H72.006C72.0805 68.9425 72.1554 68.9425 72.2299 68.9365H72.3359H72.5127C73.547 68.5329 74.4261 67.8106 75.0227 66.8743C75.7164 66.0049 76.1093 64.9339 76.1423 63.8221C76.1423 63.8221 76.1423 63.7043 76.1423 63.6454C76.1423 63.5865 76.1423 63.5747 76.1423 63.5393C76.1293 63.4669 76.1096 63.3959 76.0834 63.3272V63.2683C76.0685 63.2268 76.0487 63.1872 76.0244 63.1504C75.9156 62.9668 75.7714 62.8066 75.6002 62.6791C75.4322 62.5559 75.239 62.4714 75.0345 62.4316C74.1979 62.2077 72.8309 63.0562 71.7939 64.5174C70.7568 65.9787 70.3915 67.546 70.8747 68.2648C70.9665 68.4261 71.0862 68.5697 71.2282 68.6891Z" fill="#64CF83"/>
<path opacity="0.3" d="M72.5015 67.7934C72.0184 67.4517 72.2069 66.3557 72.9257 65.3423C73.6446 64.3288 74.6227 63.7986 75.0941 64.1639C75.3887 64.376 75.4358 64.8827 75.2473 65.4601C75.2473 64.7649 74.7052 64.4938 74.0688 64.9181C73.4048 65.4488 72.9094 66.1612 72.6429 66.9685C72.5369 67.4753 72.584 67.8288 72.9847 67.9113C72.9004 67.9244 72.8142 67.9208 72.7313 67.9005C72.6484 67.8803 72.5703 67.8439 72.5015 67.7934Z" fill="black"/>
<path d="M65.1003 50.3295C65.0803 48.1622 65.5138 46.0147 66.373 44.0249C66.373 45.1326 67.5514 46.2875 70.5211 47.0653C72.8779 47.7016 72.6776 47.6073 74.351 47.9491L75.058 48.1023L74.728 49.7403L74.021 49.5989C72.3358 49.2689 72.5479 49.481 70.0968 49.1393C67.1036 48.7268 65.4892 49.2925 65.1003 50.3295Z" fill="#64CF83"/>
<path opacity="0.2" d="M73.9741 49.5872C73.9741 49.328 74.0448 49.0452 74.092 48.7623C74.1458 48.4872 74.2166 48.2156 74.3041 47.9492L75.0583 48.1024L74.7283 49.7404L73.9741 49.5872Z" fill="black"/>
<path d="M75.5303 51.8733C75.6861 51.903 75.846 51.903 76.0017 51.8733H76.096C76.1473 51.8594 76.1954 51.8354 76.2374 51.8026H76.3081L76.4024 51.7201C76.9372 51.1165 77.3028 50.3821 77.4622 49.5915C77.6216 48.8009 77.569 47.9822 77.3098 47.2185L77.2391 47.1125V47.0418L77.133 46.9239C77.1058 46.9293 77.0777 46.9293 77.0505 46.9239C76.9208 46.8376 76.7773 46.7738 76.6263 46.7354C76.4751 46.7002 76.3178 46.7002 76.1667 46.7354C75.5421 46.8297 74.8822 47.8078 74.6229 49.0922C74.3637 50.3767 74.6229 51.5434 75.1296 51.8733C75.2622 51.8962 75.3978 51.8962 75.5303 51.8733Z" fill="#64CF83"/>
<path opacity="0.3" d="M76.119 50.8828C75.6947 50.8003 75.4944 50.0107 75.6829 49.1269C75.8715 48.2431 76.3429 47.5832 76.7671 47.6657C77.1913 47.7481 77.2031 48.0428 77.2621 48.4906C77.0735 48.0192 76.6021 48.0074 76.2957 48.4906C76.0038 49.0438 75.8848 49.6719 75.954 50.2936C76.0247 50.6471 76.1661 50.8828 76.4607 50.8121C76.36 50.8785 76.2377 50.9038 76.119 50.8828Z" fill="black"/>
<path d="M66.4207 38.3336C65.9903 36.8268 65.648 35.2962 65.3955 33.7495C65.5723 34.3741 66.0436 35.1401 66.7035 35.1636C67.1936 35.1815 67.684 35.142 68.1648 35.0458H68.318L68.5301 36.0121H68.3887C67.9139 36.1227 67.4602 36.3098 67.0453 36.566C66.7741 36.7624 66.5691 37.0367 66.4575 37.3525C66.346 37.6682 66.3331 38.0104 66.4207 38.3336Z" fill="#64CF83"/>
<path opacity="0.2" d="M68.176 36.082C68.176 35.9288 68.0817 35.7638 68.0464 35.5989C68.011 35.4339 67.9874 35.2689 67.9639 35.1039L68.3174 35.0332L68.5295 35.9995L68.176 36.082Z" fill="black"/>
<path d="M69.9554 37.3192C70.0889 37.295 70.2144 37.2384 70.3208 37.1542L70.4033 37.0599C70.399 37.0286 70.399 36.9969 70.4033 36.9656C70.5907 36.3708 70.6175 35.7371 70.4809 35.1286C70.3443 34.5201 70.0492 33.9586 69.6255 33.501H69.543H69.4251H69.3544C69.2338 33.4775 69.1098 33.4775 68.9891 33.501C68.8747 33.5326 68.767 33.5845 68.671 33.6542C68.2703 33.9135 68.1053 34.8327 68.3292 35.8108C68.5531 36.7889 69.0716 37.5431 69.5076 37.6138C69.6893 37.577 69.8497 37.4714 69.9554 37.3192Z" fill="#64CF83"/>
<path opacity="0.3" d="M70.0618 36.4475C69.7318 36.5182 69.343 36.0232 69.1898 35.3397C69.0366 34.6562 69.1897 34.0435 69.5079 33.9727C69.8261 33.902 69.9322 34.1024 70.1089 34.397C69.8379 34.1259 69.4961 34.2556 69.4254 34.7034C69.3913 35.1859 69.5065 35.6673 69.7554 36.0821C69.9204 36.3178 70.0971 36.4239 70.2739 36.2943C70.2509 36.3329 70.2201 36.3664 70.1837 36.3928C70.1472 36.4191 70.1057 36.4377 70.0618 36.4475Z" fill="black"/>
<path d="M55.4143 63.8227C51.0847 66.9083 45.9373 68.6406 40.6231 68.8006C35.3089 68.9606 30.0667 67.5411 25.5592 64.7216C21.0518 61.9022 17.4818 57.8094 15.3005 52.9609C13.1193 48.1123 12.4248 42.7258 13.305 37.4826C14.1852 32.2394 16.6005 27.375 20.2454 23.5045C23.8903 19.634 28.6012 16.9313 33.7822 15.7383C38.9632 14.5452 44.3816 14.9154 49.3522 16.8019C54.3228 18.6884 58.6224 22.0066 61.7071 26.3368C65.8429 32.1425 67.5033 39.3531 66.3232 46.3829C65.1431 53.4126 61.2191 59.6858 55.4143 63.8227Z" fill="#64CF83"/>
<path d="M55.4143 63.8227C51.0847 66.9083 45.9373 68.6406 40.6231 68.8006C35.3089 68.9606 30.0667 67.5411 25.5592 64.7216C21.0518 61.9022 17.4818 57.8094 15.3005 52.9609C13.1193 48.1123 12.4248 42.7258 13.305 37.4826C14.1852 32.2394 16.6005 27.375 20.2454 23.5045C23.8903 19.634 28.6012 16.9313 33.7822 15.7383C38.9632 14.5452 44.3816 14.9154 49.3522 16.8019C54.3228 18.6884 58.6224 22.0066 61.7071 26.3368C65.8429 32.1425 67.5033 39.3531 66.3232 46.3829C65.1431 53.4126 61.2191 59.6858 55.4143 63.8227Z" fill="#64CF83"/>
<path opacity="0.4" d="M55.4143 63.8227C51.0847 66.9083 45.9373 68.6406 40.6231 68.8006C35.3089 68.9606 30.0667 67.5411 25.5592 64.7216C21.0518 61.9022 17.4818 57.8094 15.3005 52.9609C13.1193 48.1123 12.4248 42.7258 13.305 37.4826C14.1852 32.2394 16.6005 27.375 20.2454 23.5045C23.8903 19.634 28.6012 16.9313 33.7822 15.7383C38.9632 14.5452 44.3816 14.9154 49.3522 16.8019C54.3228 18.6884 58.6224 22.0066 61.7071 26.3368C65.8429 32.1425 67.5033 39.3531 66.3232 46.3829C65.1431 53.4126 61.2191 59.6858 55.4143 63.8227Z" fill="white"/>
<path opacity="0.1" d="M47.1181 67.7938C39.3876 69.7382 19.8138 64.2585 16.3728 45.0737C12.9318 25.8888 31.6924 16.0371 38.433 15.0708C34.6589 15.271 30.9693 16.2649 27.6053 17.9876C24.2412 19.7103 21.2782 22.123 18.9098 25.0683C16.5413 28.0136 14.8206 31.4253 13.8599 35.0807C12.8992 38.736 12.7202 42.5529 13.3345 46.2821C13.9488 50.0113 15.3427 53.5691 17.425 56.7232C19.5074 59.8773 22.2316 62.5567 25.4196 64.5867C28.6077 66.6167 32.188 67.9516 35.9268 68.5042C39.6657 69.0568 43.4791 68.8147 47.1181 67.7938Z" fill="black"/>
<path d="M24.6449 36.5185C24.2914 38.5218 22.783 39.9241 21.2863 39.6531C19.7897 39.3821 18.8588 37.5555 19.2005 35.5639C19.5423 33.5724 21.0624 32.1701 22.5591 32.4293C24.0557 32.6886 24.9984 34.5269 24.6449 36.5185Z" fill="#64CF83"/>
<path opacity="0.1" d="M24.6449 36.5185C24.2914 38.5218 22.783 39.9241 21.2863 39.6531C19.7897 39.3821 18.8588 37.5555 19.2005 35.5639C19.5423 33.5724 21.0624 32.1701 22.5591 32.4293C24.0557 32.6886 24.9984 34.5269 24.6449 36.5185Z" fill="black"/>
<path opacity="0.25" d="M21.4515 33.4546C22.2293 32.9007 23.4666 33.9495 23.2663 35.8114C23.1013 37.2845 22.2057 38.5454 21.3455 38.675C21.0419 38.7018 20.7398 38.61 20.5025 38.4188C20.2652 38.2277 20.1112 37.952 20.0728 37.6498C20.4027 38.1801 21.0626 38.2743 21.6872 37.6498C22.0782 37.2292 22.3609 36.7197 22.5108 36.1653C22.6607 35.6109 22.6733 35.0283 22.5475 34.468C22.3589 33.7609 21.8993 33.3956 21.4515 33.4546Z" fill="black"/>
<path d="M52.9041 52.3089C53.7997 50.4941 55.6262 49.5749 56.9932 50.2466C58.3602 50.9183 58.7491 52.9452 57.8417 54.76C56.9343 56.5748 55.1195 57.494 53.7525 56.8223C52.3856 56.1505 51.9967 54.1354 52.9041 52.3089Z" fill="#64CF83"/>
<path opacity="0.1" d="M52.9041 52.3089C53.7997 50.4941 55.6262 49.5749 56.9932 50.2466C58.3602 50.9183 58.7491 52.9452 57.8417 54.76C56.9343 56.5748 55.1195 57.494 53.7525 56.8223C52.3856 56.1505 51.9967 54.1354 52.9041 52.3089Z" fill="black"/>
<path opacity="0.25" d="M55.1074 56.1512C54.2 56.4694 53.3044 55.1024 54.0233 53.3819C54.5889 52.0031 55.8145 51.025 56.6747 51.1664C56.9712 51.2265 57.2331 51.3983 57.4064 51.6461C57.5797 51.894 57.651 52.199 57.6057 52.498C57.4407 51.897 56.8279 51.626 56.0502 52.062C55.5559 52.3561 55.1409 52.7664 54.8411 53.2572C54.5413 53.7479 54.3657 54.3045 54.3296 54.8785C54.3179 55.5973 54.6478 56.0923 55.1074 56.1512Z" fill="black"/>
<path d="M41.5201 33.6192C39.8114 33.525 38.4916 32.4408 38.5623 31.1328C38.633 29.8247 40.0707 28.8937 41.7676 28.988C43.4646 29.0823 44.7844 30.1664 44.7137 31.4627C44.643 32.759 43.2171 33.7135 41.5201 33.6192Z" fill="#64CF83"/>
<path opacity="0.1" d="M41.5201 33.6192C39.8114 33.525 38.4916 32.4408 38.5623 31.1328C38.633 29.8247 40.0707 28.8937 41.7676 28.988C43.4646 29.0823 44.7844 30.1664 44.7137 31.4627C44.643 32.759 43.2171 33.7135 41.5201 33.6192Z" fill="black"/>
<path opacity="0.25" d="M43.7482 30.6491C44.2903 31.2501 43.5361 32.3932 41.9687 32.4049C40.7196 32.4049 39.6119 31.8039 39.3762 31.0969C39.3447 30.9723 39.3383 30.8426 39.3575 30.7155C39.3767 30.5884 39.4211 30.4664 39.488 30.3567C39.555 30.2469 39.6432 30.1516 39.7474 30.0764C39.8516 30.0011 39.9698 29.9475 40.095 29.9185C39.6944 30.2484 39.6826 30.8023 40.2836 31.2619C40.6727 31.5452 41.1249 31.7298 41.6011 31.7995C42.0774 31.8693 42.5635 31.8223 43.0176 31.6625C43.5832 31.4504 43.8542 31.0262 43.7482 30.6491Z" fill="black"/>
<path d="M34.1905 47.0068C35.581 48.4798 35.8285 50.5421 34.7208 51.5673C33.6131 52.5926 31.5862 52.2862 30.1956 50.8131C28.8051 49.3401 28.5576 47.2778 29.6536 46.2644C30.7495 45.2509 32.7882 45.5455 34.1905 47.0068Z" fill="#64CF83"/>
<path opacity="0.1" d="M34.1905 47.0068C35.581 48.4798 35.8285 50.5421 34.7208 51.5673C33.6131 52.5926 31.5862 52.2862 30.1956 50.8131C28.8051 49.3401 28.5576 47.2778 29.6536 46.2644C30.7495 45.2509 32.7882 45.5455 34.1905 47.0068Z" fill="black"/>
<path opacity="0.25" d="M29.8184 47.7605C29.8184 46.806 31.421 46.4289 32.7998 47.7605C33.8957 48.7622 34.3789 50.2352 33.9782 51.013C33.8191 51.2723 33.5659 51.46 33.2716 51.5368C32.9773 51.6137 32.6647 51.5738 32.3991 51.4254C33.0237 51.4254 33.4833 51.0012 33.3419 50.1174C33.2354 49.553 32.9931 49.0231 32.6358 48.5734C32.2785 48.1237 31.8171 47.7679 31.2914 47.5366C30.6079 47.2067 30.0423 47.3599 29.8184 47.7605Z" fill="black"/>
<path d="M40.2478 24.8637C38.2327 24.6398 36.7125 23.2375 36.9011 21.7291C37.0896 20.2207 38.8337 19.1601 40.837 19.3722C42.8404 19.5843 44.3723 20.9985 44.1956 22.5186C44.0188 24.0388 42.2629 25.0876 40.2478 24.8637Z" fill="#64CF83"/>
<path opacity="0.1" d="M40.2478 24.8637C38.2327 24.6398 36.7125 23.2375 36.9011 21.7291C37.0896 20.2207 38.8337 19.1601 40.837 19.3722C42.8404 19.5843 44.3723 20.9985 44.1956 22.5186C44.0188 24.0388 42.2629 25.0876 40.2478 24.8637Z" fill="black"/>
<path opacity="0.25" d="M43.0871 21.47C43.6999 22.2124 42.7336 23.5322 40.8599 23.4497C39.3751 23.379 38.0434 22.5659 37.8667 21.7174C37.818 21.4166 37.8878 21.1086 38.0614 20.8581C38.235 20.6076 38.4989 20.4341 38.7976 20.374C38.2909 20.7511 38.2438 21.411 38.9273 21.9885C39.3725 22.3504 39.8991 22.5986 40.4616 22.7115C41.0242 22.8244 41.6058 22.7987 42.1562 22.6366C42.8514 22.4009 43.2167 21.9296 43.0871 21.47Z" fill="black"/>
<path d="M44.6317 48.9393C46.364 48.4915 48.0374 49.1985 48.3791 50.5066C48.7209 51.8146 47.5778 53.2288 45.8337 53.6648C44.0896 54.1008 42.428 53.4173 42.0863 52.1092C41.7445 50.8012 42.8876 49.3399 44.6317 48.9393Z" fill="#64CF83"/>
<path opacity="0.1" d="M44.6317 48.9393C46.364 48.4915 48.0374 49.1985 48.3791 50.5066C48.7209 51.8146 47.5778 53.2288 45.8337 53.6648C44.0896 54.1008 42.428 53.4173 42.0863 52.1092C41.7445 50.8012 42.8876 49.3399 44.6317 48.9393Z" fill="black"/>
<path opacity="0.25" d="M43.323 52.5922C42.5924 52.1562 42.9813 50.7656 44.5015 50.2353C44.9994 50.0187 45.5495 49.9512 46.085 50.0412C46.6206 50.1311 47.1184 50.3746 47.5182 50.7421C47.6556 50.9765 47.6943 51.2559 47.6258 51.5188C47.5573 51.7818 47.3872 52.0068 47.1529 52.1444C47.4593 51.673 47.2944 51.1192 46.5519 50.8481C46.0717 50.6833 45.5583 50.6391 45.0569 50.7192C44.5555 50.7993 44.0815 51.0014 43.6766 51.3077C43.217 51.7319 43.0991 52.2387 43.323 52.5922Z" fill="black"/>
<path d="M55.0015 40.6895C54.318 37.9673 55.4375 35.3512 57.488 34.7974C59.5384 34.2435 61.7539 36.0819 62.4256 38.8158C63.0973 41.5498 61.9778 44.1541 59.9273 44.708C57.8769 45.2618 55.6614 43.4588 55.0015 40.6895Z" fill="#64CF83"/>
<path opacity="0.1" d="M55.0015 40.6895C54.318 37.9673 55.4375 35.3512 57.488 34.7974C59.5384 34.2435 61.7539 36.0819 62.4256 38.8158C63.0973 41.5498 61.9778 44.1541 59.9273 44.708C57.8769 45.2618 55.6614 43.4588 55.0015 40.6895Z" fill="black"/>
<path opacity="0.25" d="M60.7522 42.8227C60.0687 44.0011 57.9122 43.3294 57.1226 40.8547C56.4981 38.8867 56.9341 36.7773 57.9475 36.141C58.1297 36.0339 58.3313 35.9641 58.5407 35.9358C58.7501 35.9074 58.963 35.9211 59.167 35.9759C59.3711 36.0308 59.5622 36.1257 59.7291 36.2552C59.8961 36.3847 60.0355 36.5462 60.1394 36.7302C59.4206 36.247 58.5368 36.4945 58.1007 37.6611C57.8417 38.4134 57.7696 39.2174 57.8908 40.0037C58.0119 40.7901 58.3226 41.5351 58.796 42.1745C59.4206 42.9405 60.2101 43.1644 60.7522 42.8227Z" fill="black"/>
<path d="M23.3604 48.6913C23.4296 49.084 23.388 49.4882 23.2402 49.8585C23.0925 50.2289 22.8444 50.5507 22.5238 50.7878C22.2033 51.0249 21.823 51.168 21.4256 51.201C21.0283 51.234 20.6296 51.1556 20.2744 50.9745C19.9191 50.7935 19.6214 50.517 19.4146 50.1761C19.2078 49.8352 19.1001 49.4434 19.1036 49.0447C19.1071 48.6459 19.2217 48.2561 19.4345 47.9189C19.6473 47.5818 19.9499 47.3106 20.3083 47.1358C20.9195 46.9514 21.5783 47.0102 22.147 47.3001C22.7158 47.59 23.1505 48.0885 23.3604 48.6913Z" fill="#64CF83"/>
<path opacity="0.1" d="M23.3604 48.6913C23.4296 49.084 23.388 49.4882 23.2402 49.8585C23.0925 50.2289 22.8444 50.5507 22.5238 50.7878C22.2033 51.0249 21.823 51.168 21.4256 51.201C21.0283 51.234 20.6296 51.1556 20.2744 50.9745C19.9191 50.7935 19.6214 50.517 19.4146 50.1761C19.2078 49.8352 19.1001 49.4434 19.1036 49.0447C19.1071 48.6459 19.2217 48.2561 19.4345 47.9189C19.6473 47.5818 19.9499 47.3106 20.3083 47.1358C20.9195 46.9514 21.5783 47.0102 22.147 47.3001C22.7158 47.59 23.1505 48.0885 23.3604 48.6913Z" fill="black"/>
<path opacity="0.25" d="M20.0845 48.2439C20.3202 47.5604 21.5222 47.6547 22.2174 48.8684C22.4826 49.2428 22.6328 49.6863 22.6495 50.1448C22.6663 50.6032 22.5489 51.0565 22.3117 51.4492C22.1522 51.5992 21.9415 51.6827 21.7225 51.6827C21.5035 51.6827 21.2928 51.5992 21.1333 51.4492C21.5693 51.626 21.9935 51.4492 22.0996 50.7304C22.1605 50.296 22.1127 49.8534 21.9605 49.4421C21.8083 49.0307 21.5565 48.6636 21.2276 48.3735C20.8269 48.0317 20.3319 47.9964 20.0845 48.2439Z" fill="black"/>
<path d="M33.4013 56.9995C35.2632 57.8598 36.2648 59.6981 35.6167 61.1123C34.9686 62.5264 32.9181 62.9624 31.0562 62.1021C29.1943 61.2419 28.1808 59.4035 28.8289 58.0012C29.4771 56.5989 31.5276 56.1393 33.4013 56.9995Z" fill="#64CF83"/>
<path opacity="0.1" d="M33.4013 56.9995C35.2632 57.8598 36.2648 59.6981 35.6167 61.1123C34.9686 62.5264 32.9181 62.9624 31.0562 62.1021C29.1943 61.2419 28.1808 59.4035 28.8289 58.0012C29.4771 56.5989 31.5276 56.1393 33.4013 56.9995Z" fill="black"/>
<path opacity="0.25" d="M29.5594 59.3561C29.2059 58.4487 30.5729 57.4942 32.3523 58.1777C33.7546 58.7198 34.7799 59.9218 34.7091 60.8056C34.6625 61.1128 34.4965 61.3892 34.2471 61.5746C33.9977 61.76 33.6851 61.8394 33.3775 61.7955C33.9785 61.6069 34.2378 60.9824 33.7782 60.2046C33.4622 59.7133 33.0329 59.3049 32.5265 59.0137C32.02 58.7225 31.4511 58.5571 30.8675 58.5312C30.0897 58.5312 29.6065 58.8847 29.5594 59.3561Z" fill="black"/>
<path d="M44.5958 59.7332C44.9436 59.7061 45.2922 59.7766 45.6021 59.9368C45.9121 60.0971 46.1711 60.3407 46.3501 60.6402C46.5291 60.9397 46.6208 61.2833 46.6151 61.6322C46.6093 61.981 46.5062 62.3214 46.3175 62.6148C46.1287 62.9083 45.8618 63.1432 45.5467 63.2932C45.2317 63.4431 44.881 63.5021 44.5342 63.4634C44.1874 63.4248 43.8583 63.2901 43.584 63.0746C43.3096 62.859 43.1009 62.5711 42.9813 62.2433C42.8779 61.6977 42.9876 61.1333 43.288 60.6663C43.5884 60.1993 44.0565 59.8653 44.5958 59.7332Z" fill="#64CF83"/>
<path opacity="0.1" d="M44.5958 59.7332C44.9436 59.7061 45.2922 59.7766 45.6021 59.9368C45.9121 60.0971 46.1711 60.3407 46.3501 60.6402C46.5291 60.9397 46.6208 61.2833 46.6151 61.6322C46.6093 61.981 46.5062 62.3214 46.3175 62.6148C46.1287 62.9083 45.8618 63.1432 45.5467 63.2932C45.2317 63.4431 44.881 63.5021 44.5342 63.4634C44.1874 63.4248 43.8583 63.2901 43.584 63.0746C43.3096 62.859 43.1009 62.5711 42.9813 62.2433C42.8779 61.6977 42.9876 61.1333 43.288 60.6663C43.5884 60.1993 44.0565 59.8653 44.5958 59.7332Z" fill="black"/>
<path opacity="0.25" d="M43.9246 62.5383C43.3471 62.279 43.5357 61.2302 44.6552 60.7353C45.0049 60.5421 45.4025 60.4527 45.8012 60.4778C46.2 60.5028 46.5833 60.6412 46.906 60.8767C46.967 60.9563 47.0112 61.0475 47.036 61.1447C47.0608 61.2419 47.0656 61.3431 47.0502 61.4422C47.0348 61.5414 46.9994 61.6363 46.9463 61.7214C46.8932 61.8065 46.8233 61.8799 46.741 61.9373C46.9296 61.572 46.741 61.1713 46.1989 61.0299C45.8341 60.9514 45.4558 60.9607 45.0952 61.057C44.7346 61.1533 44.4021 61.3338 44.1249 61.5838C43.795 61.9019 43.736 62.3026 43.9246 62.5383Z" fill="black"/>
<path d="M51.549 27.421C51.3394 27.1428 51.2115 26.8117 51.1797 26.4648C51.1479 26.118 51.2134 25.7691 51.3688 25.4574C51.5242 25.1457 51.7635 24.8835 52.0597 24.7003C52.3559 24.517 52.6973 24.4199 53.0456 24.4199C53.3939 24.4199 53.7353 24.517 54.0315 24.7003C54.3276 24.8835 54.5669 25.1457 54.7223 25.4574C54.8778 25.7691 54.9433 26.118 54.9114 26.4648C54.8796 26.8117 54.7517 27.1428 54.5422 27.421C54.1403 27.8084 53.6038 28.0248 53.0456 28.0248C52.4874 28.0248 51.9509 27.8084 51.549 27.421Z" fill="#64CF83"/>
<path opacity="0.1" d="M51.549 27.421C51.3394 27.1428 51.2115 26.8117 51.1797 26.4648C51.1479 26.118 51.2134 25.7691 51.3688 25.4574C51.5242 25.1457 51.7635 24.8835 52.0597 24.7003C52.3559 24.517 52.6973 24.4199 53.0456 24.4199C53.3939 24.4199 53.7353 24.517 54.0315 24.7003C54.3276 24.8835 54.5669 25.1457 54.7223 25.4574C54.8778 25.7691 54.9433 26.118 54.9114 26.4648C54.8796 26.8117 54.7517 27.1428 54.5422 27.421C54.1403 27.8084 53.6038 28.0248 53.0456 28.0248C52.4874 28.0248 51.9509 27.8084 51.549 27.421Z" fill="black"/>
<path opacity="0.25" d="M54.2588 26.4545C54.3531 27.0673 53.3868 27.4798 52.3498 26.8198C51.5367 26.3013 51.0653 25.4057 51.2421 24.8636C51.3111 24.6763 51.4515 24.524 51.6327 24.44C51.8138 24.3561 52.0208 24.3474 52.2084 24.4158C51.8077 24.4158 51.5602 24.8165 51.7488 25.3704C51.8841 25.7179 52.0999 26.0283 52.3785 26.2762C52.6571 26.5241 52.9906 26.7023 53.3515 26.7963C53.8228 26.8905 54.1646 26.7373 54.2588 26.4545Z" fill="black"/>
<path d="M33.1064 36.4008C32.7411 37.6735 31.6569 38.4749 30.7495 38.192C30.2233 38.2003 29.7078 38.0422 29.2767 37.7402C28.8456 37.4382 28.521 37.0077 28.349 36.5103C28.177 36.0128 28.1666 35.4737 28.3192 34.97C28.4717 34.4662 28.7795 34.0235 29.1985 33.705C29.6176 33.3866 30.1265 33.2086 30.6527 33.1965C31.1789 33.1844 31.6955 33.3388 32.1288 33.6376C32.562 33.9365 32.8898 34.3646 33.0654 34.8608C33.2409 35.357 33.2553 35.896 33.1064 36.4008Z" fill="#64CF83"/>
<path opacity="0.1" d="M33.1064 36.4008C32.7411 37.6735 31.6569 38.4749 30.7495 38.192C30.2233 38.2003 29.7078 38.0422 29.2767 37.7402C28.8456 37.4382 28.521 37.0077 28.349 36.5103C28.177 36.0128 28.1666 35.4737 28.3192 34.97C28.4717 34.4662 28.7795 34.0235 29.1985 33.705C29.6176 33.3866 30.1265 33.2086 30.6527 33.1965C31.1789 33.1844 31.6955 33.3388 32.1288 33.6376C32.562 33.9365 32.8898 34.3646 33.0654 34.8608C33.2409 35.357 33.2553 35.896 33.1064 36.4008Z" fill="black"/>
<path opacity="0.25" d="M31.268 34.1846C31.8101 33.8783 32.5407 34.656 32.2697 35.8462C32.0576 36.789 31.3859 37.5432 30.8202 37.5667C30.7207 37.5683 30.6219 37.5499 30.5297 37.5126C30.4375 37.4752 30.3537 37.4197 30.2834 37.3494C30.213 37.279 30.1575 37.1953 30.1202 37.103C30.0829 37.0108 30.0644 36.912 30.066 36.8125C30.2428 37.1779 30.6552 37.2839 31.1148 36.9186C31.3961 36.6714 31.6144 36.3608 31.7518 36.0124C31.8891 35.664 31.9414 35.2879 31.9044 34.9153C31.8337 34.4439 31.5744 34.1729 31.268 34.1846Z" fill="black"/>
<path d="M48.567 39.983C48.3446 39.4707 48.3297 38.8921 48.5253 38.369C48.7209 37.8459 49.1118 37.4191 49.6158 37.1784C50.5703 36.8955 51.6427 37.6969 51.9727 38.9696C52.1292 39.2146 52.2265 39.4927 52.257 39.7818C52.2874 40.071 52.2502 40.3632 52.1482 40.6355C52.0462 40.9078 51.8822 41.1525 51.6693 41.3505C51.4563 41.5484 51.2002 41.6941 50.9213 41.776C50.6423 41.8579 50.3481 41.8737 50.0619 41.8223C49.7758 41.7708 49.5055 41.6535 49.2726 41.4795C49.0396 41.3056 48.8503 41.0798 48.7197 40.8201C48.589 40.5603 48.5206 40.2738 48.5199 39.983H48.567Z" fill="#64CF83"/>
<path opacity="0.1" d="M48.567 39.983C48.3446 39.4707 48.3297 38.8921 48.5253 38.369C48.7209 37.8459 49.1118 37.4191 49.6158 37.1784C50.5703 36.8955 51.6427 37.6969 51.9727 38.9696C52.1292 39.2146 52.2265 39.4927 52.257 39.7818C52.2874 40.071 52.2502 40.3632 52.1482 40.6355C52.0462 40.9078 51.8822 41.1525 51.6693 41.3505C51.4563 41.5484 51.2002 41.6941 50.9213 41.776C50.6423 41.8579 50.3481 41.8737 50.0619 41.8223C49.7758 41.7708 49.5055 41.6535 49.2726 41.4795C49.0396 41.3056 48.8503 41.0798 48.7197 40.8201C48.589 40.5603 48.5206 40.2738 48.5199 39.983H48.567Z" fill="black"/>
<path opacity="0.25" d="M51.3244 40.8435C51.018 41.3974 49.9928 41.1382 49.5686 39.9951C49.3961 39.6333 49.3321 39.2293 49.3844 38.832C49.4367 38.4346 49.603 38.0609 49.8632 37.7561C49.9464 37.7022 50.0395 37.6655 50.1371 37.6481C50.2347 37.6308 50.3347 37.6332 50.4314 37.6552C50.528 37.6771 50.6193 37.7182 50.6998 37.7761C50.7804 37.8339 50.8485 37.9072 50.9002 37.9917C50.5585 37.7796 50.146 37.9093 49.9692 38.4749C49.8678 38.8323 49.8523 39.2086 49.924 39.5732C49.9956 39.9377 50.1525 40.2801 50.3817 40.5725C50.6999 40.9378 51.077 41.0203 51.3244 40.8435Z" fill="black"/>
<path d="M29.6772 25.5465C29.3465 25.6542 28.9923 25.6676 28.6543 25.5854C28.3164 25.5032 28.008 25.3285 27.7636 25.0809C27.5193 24.8333 27.3488 24.5226 27.271 24.1836C27.1933 23.8445 27.2115 23.4906 27.3235 23.1613C27.4355 22.832 27.637 22.5404 27.9054 22.3191C28.1738 22.0978 28.4985 21.9557 28.8431 21.9084C29.1877 21.8612 29.5386 21.9109 29.8566 22.0518C30.1746 22.1928 30.4471 22.4195 30.6436 22.7065C30.8796 23.2132 30.9108 23.7914 30.7308 24.3206C30.5508 24.8498 30.1733 25.289 29.6772 25.5465Z" fill="#64CF83"/>
<path opacity="0.1" d="M29.6772 25.5465C29.3465 25.6542 28.9923 25.6676 28.6543 25.5854C28.3164 25.5032 28.008 25.3285 27.7636 25.0809C27.5193 24.8333 27.3488 24.5226 27.271 24.1836C27.1933 23.8445 27.2115 23.4906 27.3235 23.1613C27.4355 22.832 27.637 22.5404 27.9054 22.3191C28.1738 22.0978 28.4985 21.9557 28.8431 21.9084C29.1877 21.8612 29.5386 21.9109 29.8566 22.0518C30.1746 22.1928 30.4471 22.4195 30.6436 22.7065C30.8796 23.2132 30.9108 23.7914 30.7308 24.3206C30.5508 24.8498 30.1733 25.289 29.6772 25.5465Z" fill="black"/>
<path opacity="0.25" d="M29.6538 22.6602C30.2666 22.7662 30.3491 23.8386 29.3828 24.581C29.0925 24.856 28.729 25.0412 28.336 25.1144C27.9429 25.1875 27.5371 25.1456 27.1673 24.9935C27.0127 24.8668 26.9147 24.684 26.8949 24.4851C26.875 24.2862 26.9348 24.0876 27.0613 23.9329C26.967 24.3335 27.2262 24.6753 27.8037 24.6753C28.1788 24.6632 28.5455 24.5617 28.8735 24.3793C29.2014 24.1969 29.4811 23.9388 29.6892 23.6265C29.9249 23.2258 29.8895 22.8369 29.6538 22.6602Z" fill="black"/>
<path d="M41.6973 45.1683C40.9857 45.3987 40.2207 45.4058 39.5049 45.1886C38.7892 44.9715 38.157 44.5406 37.6932 43.9538C37.2295 43.3669 36.9564 42.6523 36.9107 41.9057C36.8649 41.1592 37.0487 40.4165 37.4373 39.7774C37.8259 39.1383 38.4007 38.6334 39.0846 38.3306C39.7685 38.0277 40.5287 37.9413 41.2631 38.083C41.9975 38.2247 42.671 38.5877 43.1931 39.1233C43.7152 39.6589 44.0609 40.3414 44.1838 41.0792C44.3904 41.9508 44.2453 42.8688 43.7799 43.6341C43.3145 44.3995 42.5663 44.9507 41.6973 45.1683Z" fill="#64CF83"/>
<path opacity="0.1" d="M41.6973 45.1683C40.9857 45.3987 40.2207 45.4058 39.5049 45.1886C38.7892 44.9715 38.157 44.5406 37.6932 43.9538C37.2295 43.3669 36.9564 42.6523 36.9107 41.9057C36.8649 41.1592 37.0487 40.4165 37.4373 39.7774C37.8259 39.1383 38.4007 38.6334 39.0846 38.3306C39.7685 38.0277 40.5287 37.9413 41.2631 38.083C41.9975 38.2247 42.671 38.5877 43.1931 39.1233C43.7152 39.6589 44.0609 40.3414 44.1838 41.0792C44.3904 41.9508 44.2453 42.8688 43.7799 43.6341C43.3145 44.3995 42.5663 44.9507 41.6973 45.1683Z" fill="black"/>
<path opacity="0.25" d="M41.6732 39.1228C40.6126 38.7104 39.2338 39.5117 38.9746 41.2087C38.7153 42.9056 40.4594 44.9207 41.8853 44.2255C41.3565 43.9855 40.8998 43.6112 40.5607 43.1398C40.2216 42.6683 40.012 42.1163 39.9527 41.5386C39.9038 41.2667 39.9098 40.9878 39.9702 40.7182C40.0307 40.4486 40.1444 40.1938 40.3046 39.9687C40.4649 39.7437 40.6685 39.5529 40.9036 39.4077C41.1386 39.2624 41.4002 39.1656 41.6732 39.1228Z" fill="black"/>
</svg>
