<svg xmlns="http://www.w3.org/2000/svg" width="166" height="82.834" viewBox="0 0 166 82.834">
  <g id="Group_4" data-name="Group 4" transform="translate(-117 -154)">
    <g id="Group_3" data-name="Group 3">
      <g id="Group_2" data-name="Group 2" transform="translate(57 5)">
        <g id="Group_1" data-name="Group 1" transform="translate(-38 -50)">
          <g id="logo" transform="translate(97.877 197.516)">
            <path id="Path_1" data-name="Path 1" d="M63.11,29.142a12.657,12.657,0,0,1-3.535-4.985c.754.731,2.581.46,5.421-1.343,2.357-1.485,4.525-2.981,6.081-4.077l.66-.46.919,1.3-.648.471c-1.556,1.108-3.677,2.7-5.833,4.407C63.522,26.549,62.662,28.175,63.11,29.142Z" fill="#64cf83"/>
            <path id="Path_2" data-name="Path 2" d="M71.829,20.15a5.393,5.393,0,0,1-.507-.613,4.786,4.786,0,0,1-.412-.684l.813-.577.919,1.3Z" opacity="0.2"/>
            <path id="Path_3" data-name="Path 3" d="M74.517,20.657a1.05,1.05,0,0,0,.306-.342.238.238,0,0,0,0-.094v-.365A3.8,3.8,0,0,0,74,17.617a3.877,3.877,0,0,0-1.838-1.508h-.519a1.026,1.026,0,0,0-.424.177,1.049,1.049,0,0,0-.306.342c-.354.518-.094,1.673.672,2.746s1.756,1.7,2.357,1.532A1.177,1.177,0,0,0,74.517,20.657Z" fill="#64cf83"/>
            <path id="Path_4" data-name="Path 4" d="M74.2,19.479c-.354.247-1.061-.141-1.591-.884s-.66-1.532-.318-1.791.577,0,.943.212c-.483-.188-.8.142-.672.7A3.169,3.169,0,0,0,73.645,19.2c.318.189.577.247.731,0a.425.425,0,0,1-.177.283Z" opacity="0.3"/>
            <path id="Path_5" data-name="Path 5" d="M55.979,20.656A14.318,14.318,0,0,1,50.7,17.545c.99.377,1.874.507,3.535-1.992,1.367-2.027,1.52-2.133,2.357-3.535.141-.212.259-.424.377-.613l1.367.813-.365.613c-.848,1.473-.907,1.626-2.027,3.806C54.613,19.3,55.166,20.008,55.979,20.656Z" fill="#64cf83"/>
            <path id="Path_6" data-name="Path 6" d="M57.877,13.055a5.074,5.074,0,0,1-.719-.353,4.713,4.713,0,0,1-.66-.46l.519-.86,1.367.813Z" opacity="0.2"/>
            <path id="Path_7" data-name="Path 7" d="M61.083,12.408a1.178,1.178,0,0,0,.177-.518v-.13a.515.515,0,0,0,0-.188.224.224,0,0,0,0-.094,1.089,1.089,0,0,0,0-.153,5.35,5.35,0,0,0-4.714-2.769H56.3l-.177.071-.094.071a1.305,1.305,0,0,0-.554.907c-.13.742.707,1.862,2.051,2.651s2.734.99,3.311.518A1.329,1.329,0,0,0,61.083,12.408Z" fill="#64cf83"/>
            <path id="Path_8" data-name="Path 8" d="M60.21,11.359c-.259.436-1.179.354-2.145-.188S56.6,9.827,56.887,9.379c.153-.271.589-.342,1.108-.224-.6,0-.8.53-.377,1.072A3.629,3.629,0,0,0,59.5,11.311c.436.059.742,0,.778-.365a.543.543,0,0,1-.071.412Z" opacity="0.3"/>
            <path id="Path_9" data-name="Path 9" d="M45.492,15.943a12.964,12.964,0,0,1-5.126-.589c.884,0,1.721-1.061,2.121-3.335A15.769,15.769,0,0,0,42.9,9.944a1.435,1.435,0,0,1,.071-.554l1.332.153V10.1a12.769,12.769,0,0,0-.059,2.109C44.066,14.493,44.632,15.683,45.492,15.943Z" fill="#64cf83"/>
            <path id="Path_10" data-name="Path 10" d="M44.207,10.357a4.353,4.353,0,0,1-.672,0,3.634,3.634,0,0,1-.66-.13,2.439,2.439,0,0,1,.094-.837l1.332.153C44.278,9.78,44.243,10.051,44.207,10.357Z" opacity="0.2"/>
            <path id="Path_11" data-name="Path 11" d="M46.01,8.931a1.1,1.1,0,0,0,0-.389.292.292,0,0,0,0-.082.354.354,0,0,0-.071-.13l-.071-.082a3.252,3.252,0,0,0-1.862-.742,3.311,3.311,0,0,0-1.98.295l-.082.059-.094.106v.071a.754.754,0,0,0-.13.365.814.814,0,0,0,0,.377c.13.519,1,1,2.1,1.178a2.283,2.283,0,0,0,2.3-.625A.9.9,0,0,0,46.01,8.931Z" fill="#64cf83"/>
            <path id="Path_12" data-name="Path 12" d="M45.138,8.519c0,.354-.7.577-1.449.495s-1.343-.46-1.308-.813.295-.4.66-.471c-.377.189-.365.577.071.813a2.64,2.64,0,0,0,1.532.153c.306-.082.483-.224.412-.46A.436.436,0,0,1,45.138,8.519Z" opacity="0.3"/>
            <path id="Path_13" data-name="Path 13" d="M34.874,15.72a12.821,12.821,0,0,1-5.8,1.838c.931-.495,1.237-2.286.412-5.515-.672-2.628-1.4-5.138-1.968-6.941-.082-.271-.153-.519-.236-.754l1.52-.483c.082.236.153.483.247.754.577,1.791,1.414,4.278,2.357,6.823C32.611,14.553,33.79,15.849,34.874,15.72Z" fill="#64cf83"/>
            <path id="Path_14" data-name="Path 14" d="M29.076,4.819a4.243,4.243,0,0,1-.742.295,7.41,7.41,0,0,1-.778.189l-.306-.955,1.52-.483Z" opacity="0.2"/>
            <path id="Path_15" data-name="Path 15" d="M29.441,1.8c.165.519-.577,1.178-1.662,1.556s-2.086.189-2.251-.318c-.094-.318.153-.707.613-1.037-.412.495-.153,1.013.577,1.061a3.924,3.924,0,0,0,2.168-.707c.354-.306.519-.6.271-.872A.612.612,0,0,1,29.441,1.8Z" opacity="0.3"/>
            <path id="Path_16" data-name="Path 16" d="M24.5,20.067a21.978,21.978,0,0,1-4.36,3.853c.672-.731.707-1.885-.318-3.288a33.206,33.206,0,0,0-2.357-2.958l-.271-.306,1.178-1,.283.306c.648.731,1.6,1.721,2.64,2.687C22.548,20.539,23.691,20.657,24.5,20.067Z" fill="#64cf83"/>
            <path id="Path_17" data-name="Path 17" d="M18.788,16.85c-.165.177-.342.354-.542.53a5.228,5.228,0,0,1-.6.471l-.424-.483,1.178-1Z" opacity="0.2"/>
            <path id="Path_18" data-name="Path 18" d="M19,14.446a1.108,1.108,0,0,0-.33-.248h-.424a3.441,3.441,0,0,0-1.909.931,3.536,3.536,0,0,0-1.178,1.779.447.447,0,0,1,0,.118V17.1a.577.577,0,0,0,0,.141.282.282,0,0,1,0,.094,1.238,1.238,0,0,0,.2.365,1.061,1.061,0,0,0,.33.236c.5.271,1.5-.071,2.357-.849s1.343-1.72,1.178-2.251A1.061,1.061,0,0,0,19,14.446Z" fill="#64cf83"/>
            <path id="Path_19" data-name="Path 19" d="M18.058,14.835c.259.283,0,.955-.636,1.485s-1.308.731-1.556.448-.118-.507.094-.849c-.13.436.2.7.683.519a2.852,2.852,0,0,0,1.178-1.1c.141-.295.165-.53-.083-.636a.4.4,0,0,1,.318.13Z" opacity="0.3"/>
            <path id="Path_20" data-name="Path 20" d="M17.009,28.093a12.964,12.964,0,0,1-2.545,5.527c.259-1.025-.86-2.451-3.795-3.983-2.357-1.249-4.714-2.357-6.434-3.17l-.719-.33.672-1.449.719.33c1.709.766,4.1,1.791,6.611,2.781C14.593,29.047,16.4,28.906,17.009,28.093Z" fill="#64cf83"/>
            <path id="Path_21" data-name="Path 21" d="M5.095,25.135a5.408,5.408,0,0,1-.283.754,4.48,4.48,0,0,1-.377.707l-.919-.424.672-1.449Z" opacity="0.2"/>
            <path id="Path_22" data-name="Path 22" d="M4.058,21.458a1.637,1.637,0,0,0-.613-.13H2.927a.5.5,0,0,0-.165.071,6.14,6.14,0,0,0-2.6,5.692v.271l.106.2.082.106a1.414,1.414,0,0,0,.507.389,1.534,1.534,0,0,0,.6.13c.86,0,2.039-1.037,2.793-2.663s.79-3.241.177-3.853A1.446,1.446,0,0,0,4.058,21.458Z" fill="#64cf83"/>
            <path id="Path_23" data-name="Path 23" d="M2.986,22.589c.53.236.554,1.355,0,2.475s-1.367,1.838-1.9,1.591c-.33-.141-.471-.625-.4-1.178.106.684.719.848,1.284.306A4.36,4.36,0,0,0,2.986,23.5c0-.507-.106-.86-.507-.86a.59.59,0,0,1,.507-.047Z" opacity="0.3"/>
            <path id="Path_24" data-name="Path 24" d="M13.415,38.451a19.9,19.9,0,0,1-.071,6.422c-.118-1.1-1.237-1.98-3.535-2.192-1.9-.165-3.724-.247-5.032-.271H4.211V40.737h.554c1.308,0,3.146,0,5.044-.177C12.13,40.4,13.261,39.512,13.415,38.451Z" fill="#64cf83"/>
            <path id="Path_25" data-name="Path 25" d="M4.977,40.69v.837a6.541,6.541,0,0,1-.059.848H4.152V40.7Z" opacity="0.2"/>
            <path id="Path_26" data-name="Path 26" d="M3.009,38.793a1.179,1.179,0,0,0-.448.094H2.467l-.13.094H2.279l-.094.094a3.924,3.924,0,0,0-.648,2.357,3.842,3.842,0,0,0,.613,2.357l.082.094H2.29l.13.094h.094a1.084,1.084,0,0,0,.448.106,1.179,1.179,0,0,0,.448-.094c.589-.212,1.061-1.3,1.072-2.616a2.894,2.894,0,0,0-1.025-2.628A.932.932,0,0,0,3.009,38.793Z" fill="#64cf83"/>
            <path id="Path_27" data-name="Path 27" d="M2.621,39.865c.436,0,.778.742.766,1.65s-.365,1.638-.79,1.638-.507-.283-.636-.719c.271.436.731.365.943-.177a3.193,3.193,0,0,0,0-1.826c-.141-.354-.33-.542-.6-.424A.484.484,0,0,1,2.621,39.865Z" opacity="0.3"/>
            <path id="Path_28" data-name="Path 28" d="M14.522,50.353a39.42,39.42,0,0,1,1.862,4.313c-.283-.589-.9-1.249-1.544-1.178a7.436,7.436,0,0,0-1.414.377l-.141.071-.4-.919h.141a4.622,4.622,0,0,0,1.178-.8,1.65,1.65,0,0,0,.318-1.862Z" fill="#64cf83"/>
            <path id="Path_29" data-name="Path 29" d="M13.226,52.911c.071.13.141.283.212.448a4.556,4.556,0,0,1,.177.46l-.33.153-.4-.919Z" opacity="0.2"/>
            <path id="Path_30" data-name="Path 30" d="M11.305,52.9c.306-.13.778.283,1.061.931s.248,1.261,0,1.4-.436,0-.672-.306c.33.212.636,0,.613-.424a2.451,2.451,0,0,0-.577-1.3c-.2-.2-.4-.283-.542-.106A.331.331,0,0,1,11.305,52.9Z" opacity="0.3"/>
            <path id="Path_31" data-name="Path 31" d="M19.955,59.8a14.542,14.542,0,0,1,4.584,4.042c-.9-.554-1.732-.86-3.795,1.179-1.685,1.7-1.85,1.756-2.958,2.993l-.459.518-1.179-1.049.46-.53c1.084-1.249,1.179-1.391,2.64-3.264C21.028,61.418,20.615,60.617,19.955,59.8Z" fill="#64cf83"/>
            <path id="Path_32" data-name="Path 32" d="M16.8,66.769a4.539,4.539,0,0,1,.636.483,4.991,4.991,0,0,1,.554.566l-.66.754-1.179-1.049Z" opacity="0.2"/>
            <path id="Path_33" data-name="Path 33" d="M13.521,66.8a1.533,1.533,0,0,0-.271.483v.566a4.62,4.62,0,0,0,1.556,2.357,4.525,4.525,0,0,0,2.534,1.249h.554a1.294,1.294,0,0,0,.448-.318,1.178,1.178,0,0,0,.259-.471c.271-.707-.342-1.956-1.508-2.993S14.6,66.191,13.933,66.5A1.179,1.179,0,0,0,13.521,66.8Z" fill="#64cf83"/>
            <path id="Path_34" data-name="Path 34" d="M14.181,67.994c.33-.389,1.261-.118,2.074.589s1.178,1.6.837,1.98-.636.236-1.178,0c.6.094.884-.365.577-.978a3.841,3.841,0,0,0-1.638-1.426c-.424-.141-.742-.13-.849.212a.542.542,0,0,1,.177-.377Z" opacity="0.3"/>
            <path id="Path_35" data-name="Path 35" d="M29.465,66.392a13.41,13.41,0,0,1,4.926,1.544c-.884-.13-1.885.707-2.7,2.828a13.928,13.928,0,0,0-.79,1.921c-.071.189-.118.365-.165.519l-1.285-.4a2.534,2.534,0,0,1,.153-.519,14.658,14.658,0,0,0,.46-2.039C30.608,68.042,30.254,66.781,29.465,66.392Z" fill="#64cf83"/>
            <path id="Path_36" data-name="Path 36" d="M29.7,72a3.532,3.532,0,0,1,.66.153,4.313,4.313,0,0,1,.625.247c-.094.283-.177.554-.247.8l-1.285-.4C29.536,72.508,29.618,72.284,29.7,72Z" opacity="0.2"/>
            <path id="Path_37" data-name="Path 37" d="M27.674,73.062a.731.731,0,0,0,0,.389.2.2,0,0,0,0,.082.573.573,0,0,0,0,.13v.094a3.241,3.241,0,0,0,1.7,1.084,3.2,3.2,0,0,0,2,.083h.165l.106-.071H31.7a.942.942,0,0,0,.224-.719c0-.53-.79-1.179-1.85-1.508a2.427,2.427,0,0,0-2.357.177A.883.883,0,0,0,27.674,73.062Z" fill="#64cf83"/>
            <path id="Path_38" data-name="Path 38" d="M28.439,73.686c.106-.354.79-.448,1.52-.212s1.237.7,1.12,1.037-.354.342-.731.342c.413-.118.471-.507.094-.813a2.7,2.7,0,0,0-1.485-.448c-.318,0-.518.13-.483.377A.4.4,0,0,1,28.439,73.686Z" opacity="0.3"/>
            <path id="Path_39" data-name="Path 39" d="M39.894,68.607a12.963,12.963,0,0,1,6.081-.7c-1.014.306-1.662,1.992-1.461,5.291.165,2.687.412,5.268.613,7.071a2.356,2.356,0,0,0,.083.778l-1.579.189a2.369,2.369,0,0,0-.094-.79c-.224-1.85-.577-4.431-1.025-7.071C41.956,70.151,40.954,68.678,39.894,68.607Z" fill="#64cf83"/>
            <path id="Path_40" data-name="Path 40" d="M43.512,80.3a5.247,5.247,0,0,1,.79-.141,4.723,4.723,0,0,1,.8,0,4.4,4.4,0,0,0,.106.99l-1.579.189C43.594,80.992,43.559,80.651,43.512,80.3Z" opacity="0.2"/>
            <path id="Path_41" data-name="Path 41" d="M41.2,82.878a1.237,1.237,0,0,0,.189.542.281.281,0,0,0,.071.106l.141.141.083.071.13.094a5.633,5.633,0,0,0,5.692-.66l.106-.118.059-.082a.71.71,0,0,0,.106-.177v-.118a1.345,1.345,0,0,0,0-.577,1.414,1.414,0,0,0-.189-.542c-.354-.7-1.768-1.108-3.394-.919s-2.923.907-3.111,1.673A1.5,1.5,0,0,0,41.2,82.878Z" fill="#64cf83"/>
            <path id="Path_42" data-name="Path 42" d="M42.592,83.2c-.071-.542.79-1.084,1.921-1.178s2.086.212,2.145.742c0,.33-.283.66-.79.9.495-.4.33-.966-.365-1.178a3.936,3.936,0,0,0-2.274.283c-.4.224-.613.483-.424.8a.543.543,0,0,1-.212-.365Z" opacity="0.3"/>
            <path id="Path_43" data-name="Path 43" d="M50.924,66.25a22.609,22.609,0,0,1,5.02-2.958c-.8.589-1.072,1.709-.342,3.276.6,1.273,1.237,2.463,1.721,3.3l.2.354-1.3.766c-.071-.106-.13-.224-.212-.342-.507-.837-1.237-1.968-2.062-3.111C52.939,66.156,51.831,65.837,50.924,66.25Z" fill="#64cf83"/>
            <path id="Path_44" data-name="Path 44" d="M55.9,70.434c.188-.141.4-.283.625-.424l.684-.354c.106.2.224.389.318.566l-1.3.766A3.239,3.239,0,0,0,55.9,70.434Z" opacity="0.2"/>
            <path id="Path_45" data-name="Path 45" d="M55.225,72.755a1.181,1.181,0,0,0,.283.306h.4a3.347,3.347,0,0,0,2.05-.554,3.535,3.535,0,0,0,1.473-1.52.187.187,0,0,0,0-.106.162.162,0,0,0,0-.071.577.577,0,0,0,0-.141v-.13a.954.954,0,0,0-.13-.389.978.978,0,0,0-.271-.306c-.448-.354-1.485-.2-2.5.389S54.9,71.671,54.99,72.225A1.18,1.18,0,0,0,55.225,72.755Z" fill="#64cf83"/>
            <path id="Path_46" data-name="Path 46" d="M56.18,72.507c-.189-.33.212-.931.907-1.344s1.426-.471,1.615-.141,0,.519-.259.813c.212-.4,0-.719-.566-.636a2.8,2.8,0,0,0-1.4.837c-.188.271-.259.507,0,.648a.39.39,0,0,1-.295-.177Z" opacity="0.3"/>
            <path id="Path_47" data-name="Path 47" d="M59.833,59.6a10.324,10.324,0,0,1,3.535-5c-.4.99.778,2.852,4.077,5.433.789.6,2.451,2.156,4.372,3.535l.813.577-.919,1.3-.813-.577c-1.944-1.367-4.042-2.828-4.619-3.205C62.779,59.391,60.634,58.9,59.833,59.6Z" fill="#64cf83"/>
            <path id="Path_48" data-name="Path 48" d="M70.91,64.883a4.211,4.211,0,0,1,.412-.684,5.393,5.393,0,0,1,.507-.613l.813.577-.919,1.3Z" opacity="0.2"/>
            <path id="Path_49" data-name="Path 49" d="M71.228,68.689a1.39,1.39,0,0,0,.577.247h.2a1.4,1.4,0,0,0,.224,0h.283a5.231,5.231,0,0,0,2.51-2.062,5.138,5.138,0,0,0,1.12-3.052v-.283a1.181,1.181,0,0,0-.059-.212v-.059a.553.553,0,0,0-.059-.118,1.613,1.613,0,0,0-.424-.471,1.413,1.413,0,0,0-.566-.248c-.837-.224-2.2.625-3.241,2.086s-1.4,3.029-.919,3.747A1.567,1.567,0,0,0,71.228,68.689Z" fill="#64cf83"/>
            <path id="Path_50" data-name="Path 50" d="M72.5,67.793c-.483-.342-.295-1.438.424-2.451s1.7-1.544,2.168-1.178c.295.212.342.719.153,1.3,0-.7-.542-.966-1.178-.542a4.384,4.384,0,0,0-1.426,2.05c-.106.507-.059.86.342.943a.649.649,0,0,1-.483-.118Z" opacity="0.3"/>
            <path id="Path_51" data-name="Path 51" d="M65.1,50.329a15.542,15.542,0,0,1,1.273-6.3c0,1.108,1.178,2.263,4.148,3.04a37.907,37.907,0,0,0,3.83.884l.707.153-.33,1.638-.707-.141c-1.685-.33-1.473-.118-3.924-.46C67.1,48.727,65.489,49.292,65.1,50.329Z" fill="#64cf83"/>
            <path id="Path_52" data-name="Path 52" d="M73.974,49.587a5.34,5.34,0,0,1,.118-.825,6.768,6.768,0,0,1,.212-.813l.754.153-.33,1.638Z" opacity="0.2"/>
            <path id="Path_53" data-name="Path 53" d="M75.53,51.873a1.258,1.258,0,0,0,.471,0H76.1a.4.4,0,0,0,.141-.071h.071l.094-.083a4.572,4.572,0,0,0,.907-4.5l-.071-.106v-.071l-.106-.118a.212.212,0,0,1-.083,0,1.38,1.38,0,0,0-.424-.188,1.013,1.013,0,0,0-.46,0c-.625.094-1.285,1.072-1.544,2.357s0,2.451.507,2.781A1.177,1.177,0,0,0,75.53,51.873Z" fill="#64cf83"/>
            <path id="Path_54" data-name="Path 54" d="M76.119,50.883c-.424-.083-.625-.872-.436-1.756s.66-1.544,1.084-1.461.436.377.5.825c-.189-.471-.66-.483-.966,0a3.123,3.123,0,0,0-.342,1.8c.071.354.212.589.507.519A.472.472,0,0,1,76.119,50.883Z" opacity="0.3"/>
            <path id="Path_55" data-name="Path 55" d="M66.421,38.334A40.377,40.377,0,0,1,65.4,33.75c.177.625.648,1.391,1.308,1.414a6.28,6.28,0,0,0,1.461-.118h.153l.212.966h-.141a4.5,4.5,0,0,0-1.343.554,1.65,1.65,0,0,0-.625,1.768Z" fill="#64cf83"/>
            <path id="Path_56" data-name="Path 56" d="M68.176,36.082a2.688,2.688,0,0,0-.13-.483c-.035-.165-.059-.33-.083-.495l.354-.071L68.53,36Z" opacity="0.2"/>
            <path id="Path_57" data-name="Path 57" d="M69.955,37.319a.826.826,0,0,0,.365-.165l.082-.094a.347.347,0,0,1,0-.094,3.535,3.535,0,0,0-.778-3.465h-.271a.955.955,0,0,0-.365,0,.99.99,0,0,0-.318.153c-.4.259-.566,1.178-.342,2.157s.742,1.732,1.178,1.8A.719.719,0,0,0,69.955,37.319Z" fill="#64cf83"/>
            <path id="Path_58" data-name="Path 58" d="M70.062,36.447c-.33.071-.719-.424-.872-1.108s0-1.3.318-1.367.424.13.6.424c-.271-.271-.613-.141-.684.306a2.357,2.357,0,0,0,.33,1.379c.165.236.342.342.519.212a.33.33,0,0,1-.212.153Z" opacity="0.3"/>
            <path id="Path_59" data-name="Path 59" d="M55.414,63.823a26.88,26.88,0,1,1,10.909-17.44A26.88,26.88,0,0,1,55.414,63.823Z" fill="#64cf83"/>
            <path id="Path_60" data-name="Path 60" d="M55.414,63.823a26.88,26.88,0,1,1,10.909-17.44A26.88,26.88,0,0,1,55.414,63.823Z" fill="#64cf83"/>
            <path id="Path_61" data-name="Path 61" d="M55.414,63.823a26.88,26.88,0,1,1,10.909-17.44A26.88,26.88,0,0,1,55.414,63.823Z" fill="#fff" opacity="0.4"/>
            <path id="Path_62" data-name="Path 62" d="M47.118,67.794c-7.73,1.944-27.3-3.535-30.745-22.72s15.32-29.037,22.06-30a26.88,26.88,0,1,0,8.685,52.723Z" opacity="0.1"/>
            <path id="Path_63" data-name="Path 63" d="M24.645,36.519c-.353,2-1.862,3.406-3.359,3.135s-2.427-2.1-2.086-4.089,1.862-3.394,3.359-3.135S25,34.527,24.645,36.519Z" fill="#64cf83"/>
            <path id="Path_64" data-name="Path 64" d="M24.645,36.519c-.353,2-1.862,3.406-3.359,3.135s-2.427-2.1-2.086-4.089,1.862-3.394,3.359-3.135S25,34.527,24.645,36.519Z" opacity="0.1"/>
            <path id="Path_65" data-name="Path 65" d="M21.451,33.455c.778-.554,2.015.495,1.815,2.357-.165,1.473-1.061,2.734-1.921,2.864a1.178,1.178,0,0,1-1.273-1.025c.33.53.99.625,1.614,0a3.536,3.536,0,0,0,.86-3.182C22.359,33.761,21.9,33.4,21.451,33.455Z" opacity="0.25"/>
            <path id="Path_66" data-name="Path 66" d="M52.9,52.309c.9-1.815,2.722-2.734,4.089-2.062s1.756,2.7.849,4.513-2.722,2.734-4.089,2.062S52,54.135,52.9,52.309Z" fill="#64cf83"/>
            <path id="Path_67" data-name="Path 67" d="M52.9,52.309c.9-1.815,2.722-2.734,4.089-2.062s1.756,2.7.849,4.513-2.722,2.734-4.089,2.062S52,54.135,52.9,52.309Z" opacity="0.1"/>
            <path id="Path_68" data-name="Path 68" d="M55.107,56.151c-.907.318-1.8-1.049-1.084-2.769.566-1.379,1.791-2.357,2.651-2.215a1.178,1.178,0,0,1,.931,1.332c-.165-.6-.778-.872-1.556-.436a3.536,3.536,0,0,0-1.721,2.817C54.318,55.6,54.648,56.092,55.107,56.151Z" opacity="0.25"/>
            <path id="Path_69" data-name="Path 69" d="M41.52,33.619c-1.709-.094-3.028-1.178-2.958-2.486s1.508-2.239,3.205-2.145,3.017,1.178,2.946,2.475S43.217,33.714,41.52,33.619Z" fill="#64cf83"/>
            <path id="Path_70" data-name="Path 70" d="M41.52,33.619c-1.709-.094-3.028-1.178-2.958-2.486s1.508-2.239,3.205-2.145,3.017,1.178,2.946,2.475S43.217,33.714,41.52,33.619Z" opacity="0.1"/>
            <path id="Path_71" data-name="Path 71" d="M43.748,30.649c.542.6-.212,1.744-1.779,1.756A2.738,2.738,0,0,1,39.376,31.1a.966.966,0,0,1,.719-1.178c-.4.33-.412.884.189,1.343a2.97,2.97,0,0,0,2.734.4C43.583,31.45,43.854,31.026,43.748,30.649Z" opacity="0.25"/>
            <path id="Path_72" data-name="Path 72" d="M34.19,47.007c1.391,1.473,1.638,3.535.53,4.56s-3.135.719-4.525-.754-1.638-3.535-.542-4.549S32.788,45.546,34.19,47.007Z" fill="#64cf83"/>
            <path id="Path_73" data-name="Path 73" d="M34.19,47.007c1.391,1.473,1.638,3.535.53,4.56s-3.135.719-4.525-.754-1.638-3.535-.542-4.549S32.788,45.546,34.19,47.007Z" opacity="0.1"/>
            <path id="Path_74" data-name="Path 74" d="M29.818,47.761c0-.955,1.6-1.332,2.981,0,1.1,1,1.579,2.475,1.178,3.252a1.178,1.178,0,0,1-1.579.412c.625,0,1.084-.424.943-1.308a3.536,3.536,0,0,0-2.05-2.581C30.608,47.207,30.042,47.36,29.818,47.761Z" opacity="0.25"/>
            <path id="Path_75" data-name="Path 75" d="M40.248,24.864c-2.015-.224-3.535-1.626-3.347-3.135s1.933-2.569,3.936-2.357S44.372,21,44.2,22.519,42.263,25.088,40.248,24.864Z" fill="#64cf83"/>
            <path id="Path_76" data-name="Path 76" d="M40.248,24.864c-2.015-.224-3.535-1.626-3.347-3.135s1.933-2.569,3.936-2.357S44.372,21,44.2,22.519,42.263,25.088,40.248,24.864Z" opacity="0.1"/>
            <path id="Path_77" data-name="Path 77" d="M43.087,21.47c.613.742-.354,2.062-2.227,1.98-1.485-.071-2.817-.884-2.993-1.732a1.178,1.178,0,0,1,.931-1.343c-.507.377-.554,1.037.13,1.615a3.535,3.535,0,0,0,3.229.648C42.851,22.4,43.217,21.93,43.087,21.47Z" opacity="0.25"/>
            <path id="Path_78" data-name="Path 78" d="M44.632,48.939c1.732-.448,3.406.259,3.747,1.567s-.8,2.722-2.545,3.158-3.406-.247-3.747-1.556S42.888,49.34,44.632,48.939Z" fill="#64cf83"/>
            <path id="Path_79" data-name="Path 79" d="M44.632,48.939c1.732-.448,3.406.259,3.747,1.567s-.8,2.722-2.545,3.158-3.406-.247-3.747-1.556S42.888,49.34,44.632,48.939Z" opacity="0.1"/>
            <path id="Path_80" data-name="Path 80" d="M43.323,52.592c-.731-.436-.342-1.827,1.178-2.357a2.8,2.8,0,0,1,3.017.507,1.025,1.025,0,0,1-.365,1.4c.306-.471.141-1.025-.6-1.3a3.1,3.1,0,0,0-2.875.46A1.03,1.03,0,0,0,43.323,52.592Z" opacity="0.25"/>
            <path id="Path_81" data-name="Path 81" d="M55,40.689c-.683-2.722.436-5.338,2.486-5.892s4.266,1.285,4.938,4.018-.448,5.338-2.5,5.892S55.661,43.459,55,40.689Z" fill="#64cf83"/>
            <path id="Path_82" data-name="Path 82" d="M55,40.689c-.683-2.722.436-5.338,2.486-5.892s4.266,1.285,4.938,4.018-.448,5.338-2.5,5.892S55.661,43.459,55,40.689Z" opacity="0.1"/>
            <path id="Path_83" data-name="Path 83" d="M60.752,42.823c-.684,1.178-2.84.507-3.63-1.968-.625-1.968-.188-4.077.825-4.714a1.591,1.591,0,0,1,2.192.589c-.719-.483-1.6-.236-2.039.931a4.9,4.9,0,0,0,.7,4.513C59.421,42.94,60.21,43.164,60.752,42.823Z" opacity="0.25"/>
            <path id="Path_84" data-name="Path 84" d="M23.36,48.691a2.145,2.145,0,1,1-3.052-1.556,2.475,2.475,0,0,1,3.052,1.556Z" fill="#64cf83"/>
            <path id="Path_85" data-name="Path 85" d="M23.36,48.691a2.145,2.145,0,1,1-3.052-1.556,2.475,2.475,0,0,1,3.052,1.556Z" opacity="0.1"/>
            <path id="Path_86" data-name="Path 86" d="M20.084,48.244c.236-.684,1.438-.589,2.133.625a2.357,2.357,0,0,1,.094,2.581.86.86,0,0,1-1.178,0c.436.177.86,0,.966-.719a2.652,2.652,0,0,0-.872-2.357A.871.871,0,0,0,20.084,48.244Z" opacity="0.25"/>
            <path id="Path_87" data-name="Path 87" d="M33.4,57c1.862.86,2.864,2.7,2.215,4.113s-2.7,1.85-4.56.99-2.875-2.7-2.227-4.1S31.528,56.139,33.4,57Z" fill="#64cf83"/>
            <path id="Path_88" data-name="Path 88" d="M33.4,57c1.862.86,2.864,2.7,2.215,4.113s-2.7,1.85-4.56.99-2.875-2.7-2.227-4.1S31.528,56.139,33.4,57Z" opacity="0.1"/>
            <path id="Path_89" data-name="Path 89" d="M29.559,59.356c-.354-.907,1.014-1.862,2.793-1.178,1.4.542,2.428,1.744,2.357,2.628a1.178,1.178,0,0,1-1.332.99c.6-.189.86-.813.4-1.591a3.653,3.653,0,0,0-2.911-1.673C30.09,58.531,29.607,58.885,29.559,59.356Z" opacity="0.25"/>
            <path id="Path_90" data-name="Path 90" d="M44.6,59.733a1.874,1.874,0,1,1-1.614,2.51,2.168,2.168,0,0,1,1.614-2.51Z" fill="#64cf83"/>
            <path id="Path_91" data-name="Path 91" d="M44.6,59.733a1.874,1.874,0,1,1-1.614,2.51,2.168,2.168,0,0,1,1.614-2.51Z" opacity="0.1"/>
            <path id="Path_92" data-name="Path 92" d="M43.925,62.538c-.577-.259-.389-1.308.731-1.8a2.1,2.1,0,0,1,2.251.141.742.742,0,0,1-.165,1.061c.189-.365,0-.766-.542-.907a2.357,2.357,0,0,0-2.074.554A.728.728,0,0,0,43.925,62.538Z" opacity="0.25"/>
            <path id="Path_93" data-name="Path 93" d="M51.549,27.421a1.874,1.874,0,1,1,2.993,0,2.157,2.157,0,0,1-2.993,0Z" fill="#64cf83"/>
            <path id="Path_94" data-name="Path 94" d="M51.549,27.421a1.874,1.874,0,1,1,2.993,0,2.157,2.157,0,0,1-2.993,0Z" opacity="0.1"/>
            <path id="Path_95" data-name="Path 95" d="M54.259,26.455c.094.613-.872,1.025-1.909.365-.813-.518-1.285-1.414-1.108-1.956a.754.754,0,0,1,.966-.448c-.4,0-.648.4-.46.955a2.357,2.357,0,0,0,1.6,1.426C53.823,26.89,54.165,26.737,54.259,26.455Z" opacity="0.25"/>
            <path id="Path_96" data-name="Path 96" d="M33.106,36.4c-.365,1.273-1.449,2.074-2.357,1.791A2.5,2.5,0,1,1,33.106,36.4Z" fill="#64cf83"/>
            <path id="Path_97" data-name="Path 97" d="M33.106,36.4c-.365,1.273-1.449,2.074-2.357,1.791A2.5,2.5,0,1,1,33.106,36.4Z" opacity="0.1"/>
            <path id="Path_98" data-name="Path 98" d="M31.268,34.185c.542-.306,1.273.471,1,1.662-.212.943-.884,1.7-1.449,1.721a.742.742,0,0,1-.754-.754c.177.365.589.471,1.049.106a2.356,2.356,0,0,0,.79-2C31.834,34.444,31.574,34.173,31.268,34.185Z" opacity="0.25"/>
            <path id="Path_99" data-name="Path 99" d="M48.567,39.983a2.156,2.156,0,0,1,1.049-2.8,2.094,2.094,0,0,1,2.357,1.791,1.874,1.874,0,1,1-3.453,1.013Z" fill="#64cf83"/>
            <path id="Path_100" data-name="Path 100" d="M48.567,39.983a2.156,2.156,0,0,1,1.049-2.8,2.094,2.094,0,0,1,2.357,1.791,1.874,1.874,0,1,1-3.453,1.013Z" opacity="0.1"/>
            <path id="Path_101" data-name="Path 101" d="M51.324,40.843c-.306.554-1.332.295-1.756-.848a2.074,2.074,0,0,1,.295-2.239.743.743,0,0,1,1.037.236c-.342-.212-.754-.082-.931.483a2.357,2.357,0,0,0,.412,2.1C50.7,40.938,51.077,41.02,51.324,40.843Z" opacity="0.25"/>
            <path id="Path_102" data-name="Path 102" d="M29.677,25.546a1.874,1.874,0,1,1,.966-2.84,2.168,2.168,0,0,1-.966,2.84Z" fill="#64cf83"/>
            <path id="Path_103" data-name="Path 103" d="M29.677,25.546a1.874,1.874,0,1,1,.966-2.84,2.168,2.168,0,0,1-.966,2.84Z" opacity="0.1"/>
            <path id="Path_104" data-name="Path 104" d="M29.654,22.66c.613.106.7,1.178-.271,1.921a2.074,2.074,0,0,1-2.215.413.754.754,0,0,1-.106-1.061c-.094.4.165.742.742.742a2.357,2.357,0,0,0,1.885-1.049C29.925,23.226,29.889,22.837,29.654,22.66Z" opacity="0.25"/>
            <path id="Path_105" data-name="Path 105" d="M41.7,45.168a3.665,3.665,0,1,1,2.486-4.089A3.406,3.406,0,0,1,41.7,45.168Z" fill="#64cf83"/>
            <path id="Path_106" data-name="Path 106" d="M41.7,45.168a3.665,3.665,0,1,1,2.486-4.089A3.406,3.406,0,0,1,41.7,45.168Z" opacity="0.1"/>
            <path id="Path_107" data-name="Path 107" d="M41.673,39.123c-1.061-.412-2.439.389-2.7,2.086s1.485,3.712,2.911,3.017a3.323,3.323,0,0,1-1.933-2.687,2.074,2.074,0,0,1,1.72-2.416Z" opacity="0.25"/>
          </g>
        </g>
        <text id="কোভিড_কেয়ার" data-name="কোভিড
কেয়ার" transform="translate(147 181)" fill="#1d1d1d" font-size="26" font-family="HindSiliguri-Bold, Hind Siliguri" font-weight="700"><tspan x="0" y="0">কোভিড</tspan><tspan fill="#59b975"><tspan x="0" y="34">কেয়ার</tspan></tspan></text>
      </g>
    </g>
  </g>
</svg>
