<svg width="30" height="32" viewBox="0 0 30 32" fill="none" xmlns="http://www.w3.org/2000/svg">
<g clip-path="url(#clip0)">
<path fill-rule="evenodd" clip-rule="evenodd" d="M11.8044 5.25514C11.8041 5.0903 11.8364 4.92704 11.8994 4.77471C11.9624 4.62238 12.0548 4.48397 12.1713 4.36741C12.2879 4.25085 12.4263 4.15844 12.5786 4.09547C12.731 4.0325 12.8942 4.0002 13.0591 4.00043H25.6079C25.7727 4.0002 25.936 4.0325 26.0883 4.09547C26.2407 4.15844 26.3791 4.25085 26.4956 4.36741C26.6122 4.48397 26.7046 4.62238 26.7676 4.77471C26.8305 4.92704 26.8628 5.0903 26.8626 5.25514V12.7851C26.8628 12.95 26.8305 13.1132 26.7676 13.2656C26.7046 13.4179 26.6122 13.5563 26.4956 13.6729C26.3791 13.7894 26.2407 13.8818 26.0883 13.9448C25.936 14.0078 25.7727 14.0401 25.6079 14.0398H15.5685C15.3737 14.0397 15.1815 14.0851 15.0073 14.1722L11.8044 15.7746V5.25514ZM13.0591 1.48926C10.9803 1.48926 9.29496 3.17455 9.29496 5.25338V17.8022C9.29445 18.0163 9.34879 18.2269 9.45281 18.414C9.55683 18.6011 9.70706 18.7584 9.88915 18.871C10.0713 18.9835 10.2792 19.0476 10.493 19.0569C10.7069 19.0663 10.9196 19.0207 11.1108 18.9246L15.865 16.5493H25.6079C27.6867 16.5493 29.372 14.864 29.372 12.7851V5.25514C29.372 3.17632 27.6867 1.49102 25.6079 1.49102H13.0591V1.48926ZM4.27437 4.00043C2.19555 4.00043 0.510254 5.68573 0.510254 7.76455V27.8434C0.510254 29.9222 2.19555 31.6075 4.27437 31.6075H18.0779C20.1567 31.6075 21.842 29.9222 21.842 27.8434V19.0587C21.842 18.7259 21.7098 18.4068 21.4745 18.1715C21.2392 17.9362 20.9201 17.804 20.5873 17.804C20.2545 17.804 19.9354 17.9362 19.7001 18.1715C19.4648 18.4068 19.3326 18.7259 19.3326 19.0587V27.8434C19.3328 28.0082 19.3005 28.1715 19.2376 28.3238C19.1746 28.4761 19.0822 28.6145 18.9656 28.7311C18.8491 28.8477 18.7107 28.9401 18.5583 29.003C18.406 29.066 18.2427 29.0983 18.0779 29.0981H4.27437C4.10954 29.0983 3.94627 29.066 3.79394 29.003C3.64161 28.9401 3.5032 28.8477 3.38664 28.7311C3.27009 28.6145 3.17767 28.4761 3.1147 28.3238C3.05173 28.1715 3.01943 28.0082 3.01967 27.8434V7.76455C3.01943 7.59972 3.05173 7.43646 3.1147 7.28412C3.17767 7.13179 3.27009 6.99338 3.38664 6.87682C3.5032 6.76027 3.64161 6.66785 3.79394 6.60488C3.94627 6.54191 4.10954 6.50961 4.27437 6.50985H6.78378C6.94855 6.50985 7.11171 6.47739 7.26394 6.41434C7.41617 6.35128 7.55448 6.25886 7.67099 6.14235C7.7875 6.02584 7.87992 5.88752 7.94298 5.7353C8.00603 5.58307 8.03849 5.41991 8.03849 5.25514C8.03849 5.09037 8.00603 4.92721 7.94298 4.77499C7.87992 4.62276 7.7875 4.48444 7.67099 4.36793C7.55448 4.25142 7.41617 4.159 7.26394 4.09594C7.11171 4.03289 6.94855 4.00043 6.78378 4.00043H4.27437Z" fill="#64CF83"/>
</g>
<defs>
<clipPath id="clip0">
<rect width="30" height="31.7647" fill="white"/>
</clipPath>
</defs>
</svg>
